<svg width="24" height="24" viewBox="0 0 24 24" fill="none" xmlns="http://www.w3.org/2000/svg">
<g id="Frame">
<path id="Vector" d="M8.49994 4H5.49994C4.67151 4 3.99994 4.67157 3.99994 5.5V9.5C3.99994 10.3284 4.67151 11 5.49994 11H8.49994C9.32837 11 9.99994 10.3284 9.99994 9.5V5.5C9.99994 4.67157 9.32837 4 8.49994 4Z" stroke="#5CDFE5" stroke-width="2" stroke-linejoin="round"/>
<path id="Vector_2" d="M18.4999 4H15.4999C14.6715 4 13.9999 4.67157 13.9999 5.5V6.5C13.9999 7.32843 14.6715 8 15.4999 8H18.4999C19.3283 8 19.9999 7.32843 19.9999 6.5V5.5C19.9999 4.67157 19.3283 4 18.4999 4Z" stroke="#5CDFE5" stroke-width="2" stroke-linejoin="round"/>
<path id="Vector_3" d="M18.4999 12H15.4999C14.6715 12 13.9999 12.6716 13.9999 13.5V18.5C13.9999 19.3284 14.6715 20 15.4999 20H18.4999C19.3283 20 19.9999 19.3284 19.9999 18.5V13.5C19.9999 12.6716 19.3283 12 18.4999 12Z" stroke="#5CDFE5" stroke-width="2" stroke-linejoin="round"/>
<path id="Vector_4" d="M8.49994 15H5.49994C4.67151 15 3.99994 15.6716 3.99994 16.5V18.5C3.99994 19.3284 4.67151 20 5.49994 20H8.49994C9.32837 20 9.99994 19.3284 9.99994 18.5V16.5C9.99994 15.6716 9.32837 15 8.49994 15Z" stroke="#5CDFE5" stroke-width="2" stroke-linejoin="round"/>
</g>
</svg>
