<svg width="24" height="24" viewBox="0 0 24 24" fill="none" xmlns="http://www.w3.org/2000/svg">
<g id="Brain">
<path id="Vector" fill-rule="evenodd" clip-rule="evenodd" d="M8.71374 0C7.08761 0 5.7085 1.00255 5.17346 2.39763C4.47249 2.44129 3.79799 2.67292 3.22563 3.06655C2.65328 3.46018 2.20572 4.00018 1.9332 4.62602C1.66318 5.25154 1.59317 5.92151 1.69118 6.56539C1.04659 7.07354 0.556751 7.74131 0.273895 8.49745C-0.00896209 9.25358 -0.0742298 10.0698 0.0850511 10.859C0.292454 11.8733 0.858971 12.7861 1.68718 13.4403C1.59952 14.0154 1.65515 14.6023 1.84945 15.1523C2.04375 15.7023 2.3711 16.1996 2.80427 16.6027C3.44833 17.1965 4.28826 17.5518 5.17646 17.6062C5.47231 18.3835 6.03235 19.0406 6.76489 19.4701C7.49743 19.8995 8.35908 20.0758 9.20878 19.9701C9.78839 19.8949 10.3421 19.6909 10.8264 19.374C11.3107 19.0571 11.7124 18.636 12 18.1438C12.2876 18.636 12.6893 19.0571 13.1736 19.374C13.6579 19.6909 14.2116 19.8949 14.7912 19.9701C15.6409 20.0758 16.5026 19.8995 17.2351 19.4701C17.9677 19.0406 18.5277 18.3835 18.8235 17.6062C19.7117 17.5517 20.5516 17.1964 21.1957 16.6027C21.6289 16.1996 21.9563 15.7023 22.1506 15.1523C22.3449 14.6023 22.4005 14.0154 22.3128 13.4403C23.141 12.7861 23.7075 11.8733 23.9149 10.859C24.0742 10.0698 24.009 9.25358 23.7261 8.49745C23.4432 7.74131 22.9534 7.07354 22.3088 6.56539C22.4126 5.90969 22.3289 5.23905 22.0668 4.62602C21.7944 4.00025 21.3471 3.4603 20.7749 3.06667C20.2027 2.67303 19.5284 2.44136 18.8275 2.39763C18.5611 1.69628 18.0789 1.09058 17.4458 0.661956C16.8128 0.233335 16.0591 0.00235326 15.2863 0C13.8721 0 12.6501 0.762721 12 1.87647C11.3499 0.762721 10.1279 0 8.71374 0ZM8.71374 0.966794C9.07958 0.965519 9.44207 1.03411 9.78038 1.16872C10.1187 1.30333 10.4261 1.50128 10.6851 1.75113C10.944 2.00099 11.1493 2.29777 11.2891 2.62458C11.429 2.95138 11.5006 3.30179 11.5 3.65545C11.4996 3.66608 11.4996 3.67669 11.5 3.68732V16.3446C11.5 17.6981 10.4679 18.834 9.07777 19.011C8.50107 19.085 7.91489 18.9822 7.40178 18.7172C6.88867 18.4522 6.47448 18.0383 6.21754 17.5338C6.28054 17.5212 6.34455 17.5144 6.40755 17.498C6.5358 17.4649 6.6452 17.3839 6.71168 17.2728C6.77817 17.1618 6.7963 17.0298 6.76208 16.9058C6.72787 16.7818 6.64411 16.6761 6.52923 16.6118C6.41436 16.5475 6.27778 16.53 6.14953 16.5631C5.74148 16.6704 5.31346 16.6861 4.89816 16.6091C4.48285 16.5321 4.09126 16.3643 3.75326 16.1186C3.41527 15.8729 3.13983 15.5558 2.94797 15.1915C2.75612 14.8272 2.65292 14.4253 2.64626 14.0165C2.89227 14.1286 3.14629 14.2283 3.41432 14.2969C3.54159 14.3276 3.67624 14.3087 3.78923 14.2443C3.90222 14.1799 3.9845 14.075 4.01835 13.9525C4.0522 13.83 4.03489 13.6996 3.97017 13.5893C3.90544 13.479 3.79848 13.3977 3.67234 13.3629C3.02098 13.1952 2.4314 12.8541 1.97067 12.3784C1.50993 11.9028 1.19653 11.3117 1.06613 10.6724C0.953867 10.1223 0.981008 9.5541 1.14523 9.01637C1.30946 8.47863 1.60589 7.98739 2.0092 7.58447C2.19222 7.96152 2.43424 8.31531 2.74926 8.61889C2.79532 8.66511 2.85045 8.70205 2.91142 8.72746C2.97238 8.75288 3.03798 8.76635 3.10437 8.767C3.17076 8.76764 3.23662 8.75546 3.29811 8.73124C3.35959 8.70702 3.41547 8.67117 3.46249 8.62585C3.5095 8.58053 3.54671 8.5266 3.57194 8.46723C3.59717 8.40786 3.60991 8.34424 3.60943 8.28006C3.60895 8.21588 3.59525 8.15249 3.56914 8.09347C3.54302 8.03446 3.50501 7.98105 3.45732 7.93639C3.09599 7.5881 2.8409 7.15026 2.72005 6.67102C2.59919 6.19178 2.61725 5.68962 2.77224 5.21965C2.92723 4.74968 3.21316 4.33009 3.59864 4.00691C3.98412 3.68372 4.45426 3.4694 4.95744 3.38755C4.95044 3.47747 4.92744 3.56361 4.92744 3.65545C4.92744 3.78366 4.98012 3.90657 5.07389 3.99723C5.16767 4.08788 5.29486 4.13885 5.42748 4.13885C5.5601 4.13885 5.68728 4.08788 5.78106 3.99723C5.87483 3.90657 5.92752 3.78366 5.92752 3.65545C5.92686 3.30179 5.99851 2.95138 6.13836 2.62458C6.2782 2.29777 6.48349 2.00099 6.74241 1.75113C7.00133 1.50128 7.30879 1.30333 7.6471 1.16872C7.9854 1.03411 8.3479 0.965519 8.71374 0.966794ZM15.2863 0.966794C15.6521 0.96552 16.0147 1.03413 16.3531 1.16872C16.6914 1.30332 16.9989 1.50117 17.2579 1.75102C17.5169 2.00086 17.7223 2.29776 17.8623 2.62458C18.0022 2.95139 18.074 3.30174 18.0735 3.65545C18.0735 3.78366 18.1262 3.90657 18.2199 3.99723C18.3137 4.08788 18.4409 4.13885 18.5735 4.13885C18.7061 4.13885 18.8333 4.08788 18.9271 3.99723C19.0209 3.90657 19.0736 3.78366 19.0736 3.65545C19.0736 3.56361 19.0516 3.47747 19.0436 3.38755C19.5465 3.46972 20.0164 3.68415 20.4017 4.00738C20.7869 4.3306 21.0727 4.75017 21.2276 5.22C21.3826 5.68984 21.4007 6.19187 21.2801 6.67102C21.1594 7.15016 20.9047 7.58796 20.5437 7.93639C20.494 7.98049 20.4542 8.03386 20.4264 8.09324C20.3986 8.15262 20.3836 8.2168 20.3821 8.28195C20.3807 8.3471 20.3929 8.41183 20.418 8.47231C20.4431 8.53279 20.4806 8.58776 20.5282 8.63387C20.5759 8.67999 20.6326 8.71632 20.6952 8.74068C20.7577 8.76503 20.8247 8.77691 20.8921 8.77561C20.9595 8.77431 21.0259 8.75976 21.0873 8.73301C21.1488 8.70625 21.2041 8.66775 21.2497 8.61983C21.5567 8.3192 21.8072 7.96919 21.9898 7.58541C22.3931 7.98814 22.6897 8.47929 22.8541 9.01684C23.0184 9.55439 23.0458 10.1224 22.9339 10.6724C22.8035 11.3117 22.4901 11.9028 22.0293 12.3784C21.5686 12.8541 20.979 13.1952 20.3277 13.3629C20.2642 13.3793 20.2046 13.4076 20.1524 13.4462C20.1003 13.4849 20.0565 13.5331 20.0235 13.5881C19.9571 13.6992 19.9389 13.8312 19.9731 13.9551C20.0074 14.0791 20.0911 14.1848 20.206 14.2491C20.3209 14.3134 20.4574 14.3309 20.5857 14.2979C20.8547 14.2282 21.1077 14.1286 21.3537 14.0165C21.347 14.4253 21.2438 14.8271 21.052 15.1915C20.8601 15.5558 20.5847 15.873 20.2467 16.1187C19.9088 16.3645 19.5172 16.5324 19.1019 16.6096C18.6866 16.6867 18.2586 16.6711 17.8505 16.564C17.7864 16.5456 17.7191 16.5399 17.6527 16.5471C17.5862 16.5543 17.522 16.5743 17.4637 16.6059C17.4054 16.6375 17.3542 16.6802 17.3132 16.7312C17.2723 16.7823 17.2423 16.8407 17.2251 16.9032C17.2079 16.9656 17.2039 17.0309 17.2132 17.0949C17.2225 17.1588 17.245 17.2203 17.2793 17.2758C17.3136 17.3312 17.3591 17.3795 17.4131 17.4176C17.4671 17.4558 17.5284 17.4831 17.5934 17.498C17.6555 17.5144 17.7195 17.5212 17.7825 17.5338C17.5255 18.0383 17.1113 18.4522 16.5982 18.7172C16.0851 18.9822 15.4989 19.085 14.9222 19.011C14.2521 18.9275 13.6364 18.6107 13.1905 18.1198C12.7446 17.629 12.4991 16.9979 12.5 16.3446V3.65545C12.4994 3.30179 12.571 2.95138 12.7109 2.62458C12.8507 2.29777 13.056 2.00099 13.3149 1.75113C13.5739 1.50128 13.8813 1.30333 14.2196 1.16872C14.5579 1.03411 14.9204 0.965519 15.2863 0.966794ZM8.66373 1.58544C8.53111 1.59185 8.40656 1.64898 8.31748 1.74417C8.22839 1.83936 8.18207 1.96482 8.1887 2.09303C8.19533 2.22123 8.25437 2.34172 8.35283 2.42784C8.4513 2.51396 8.58112 2.55864 8.71374 2.55223C9.35179 2.55223 9.85683 3.04057 9.85683 3.65545C9.85683 3.78366 9.90951 3.90657 10.0033 3.99723C10.0971 4.08788 10.2243 4.13885 10.3569 4.13885C10.4895 4.13885 10.6167 4.08788 10.7105 3.99723C10.8042 3.90657 10.8569 3.78366 10.8569 3.65545C10.8543 3.10702 10.6275 2.58182 10.2261 2.19429C9.82466 1.80675 9.28106 1.58828 8.71374 1.5865C8.69708 1.58569 8.68039 1.58569 8.66373 1.5865V1.58544ZM15.2863 1.58544C14.7188 1.58722 14.175 1.80584 13.7736 2.19358C13.3721 2.58132 13.1455 3.10685 13.1431 3.65545C13.1431 3.78366 13.1958 3.90657 13.2895 3.99723C13.3833 4.08788 13.5105 4.13885 13.6431 4.13885C13.7757 4.13885 13.9029 4.08788 13.9967 3.99723C14.0905 3.90657 14.1432 3.78366 14.1432 3.65545C14.1432 3.04057 14.6482 2.55329 15.2863 2.55329C15.4189 2.55329 15.5461 2.50233 15.6398 2.41167C15.7336 2.32102 15.7863 2.1981 15.7863 2.0699C15.7863 1.94169 15.7336 1.81866 15.6398 1.728C15.5461 1.63735 15.4189 1.5865 15.2863 1.5865V1.58544ZM5.6685 4.63771C5.58865 4.63689 5.50976 4.65446 5.43843 4.68916C5.3671 4.72386 5.30541 4.77468 5.2585 4.83715C5.2116 4.89963 5.18086 4.97197 5.16885 5.04829C5.15683 5.1246 5.1639 5.20257 5.18946 5.27571C5.25846 5.4739 5.34447 5.66347 5.44548 5.8462C5.02333 5.80228 4.59693 5.81491 4.17838 5.88385C4.111 5.89225 4.04609 5.91388 3.98763 5.94734C3.92916 5.98079 3.87836 6.02539 3.83833 6.07846C3.79829 6.13152 3.76987 6.19191 3.75478 6.25595C3.73969 6.31999 3.73826 6.38633 3.75058 6.45092C3.76289 6.51551 3.78869 6.57697 3.82641 6.6316C3.86412 6.68623 3.91295 6.73284 3.96993 6.76862C4.0269 6.8044 4.09082 6.82856 4.15778 6.83966C4.22474 6.85077 4.29334 6.84867 4.35939 6.83329C5.20346 6.68344 6.07253 6.83324 6.81559 7.24316C6.82218 7.24653 6.82885 7.24976 6.83559 7.25284C6.83888 7.25611 6.84221 7.25934 6.84559 7.26252C6.85672 7.26808 6.86806 7.27324 6.87959 7.27798C6.89272 7.28303 6.90607 7.28759 6.9196 7.29155C6.92387 7.29484 6.92821 7.29807 6.9326 7.30123C6.94018 7.30464 6.94785 7.30787 6.9556 7.3109C6.96681 7.31452 6.97815 7.31763 6.9896 7.32046C7.00543 7.32444 7.02145 7.32768 7.0376 7.33014C7.05426 7.33095 7.07095 7.33095 7.08761 7.33014C7.09961 7.33056 7.11161 7.33056 7.12361 7.33014C7.15687 7.32688 7.1897 7.3205 7.22162 7.3109C7.22629 7.31097 7.23095 7.31097 7.23562 7.3109C7.26257 7.3018 7.28867 7.29045 7.31363 7.27703C7.31768 7.27387 7.32168 7.27064 7.32563 7.26736C7.33588 7.26095 7.34589 7.25418 7.35563 7.24706C7.35901 7.24388 7.36234 7.24065 7.36563 7.23738C7.37592 7.23034 7.38593 7.22285 7.39563 7.21508C7.39901 7.2119 7.40235 7.20878 7.40563 7.20552C7.41498 7.19715 7.42398 7.18835 7.43264 7.17932C7.43535 7.17613 7.43801 7.17289 7.44064 7.16964C7.47171 7.13686 7.49796 7.10018 7.51864 7.06047C7.51931 7.06047 7.51998 7.06047 7.52064 7.06047C7.52201 7.05726 7.52335 7.05403 7.52464 7.0508C7.53702 7.02527 7.54706 6.99871 7.55465 6.97149C7.5557 6.96763 7.5567 6.9638 7.55765 6.95992C7.56078 6.9481 7.56345 6.93618 7.56565 6.92416C7.56636 6.9203 7.56703 6.91636 7.56765 6.91248C7.57157 6.88429 7.57291 6.85593 7.57165 6.82751C7.57169 6.82364 7.57169 6.81969 7.57165 6.81582C7.57085 6.80289 7.56952 6.79007 7.56765 6.77723C7.56702 6.77368 7.56635 6.77003 7.56565 6.76649C7.56345 6.75448 7.56078 6.74256 7.55765 6.73073C7.55636 6.72685 7.55503 6.72302 7.55365 6.71917C7.55074 6.70778 7.5474 6.69646 7.54364 6.6853C7.54236 6.68141 7.54103 6.67758 7.53964 6.67373C7.53509 6.66227 7.53009 6.65095 7.52464 6.63986C7.5227 6.63597 7.5207 6.63214 7.51864 6.6283C7.51306 6.61745 7.50705 6.60684 7.50064 6.59643C7.49868 6.59319 7.49668 6.58995 7.49464 6.58675C7.48803 6.57651 7.48102 6.56651 7.47364 6.55678C7.46096 6.54082 7.44727 6.52565 7.43264 6.51134C7.42464 6.50235 7.4163 6.49366 7.40763 6.48526C7.40435 6.48199 7.40101 6.47876 7.39763 6.47558C7.38793 6.46781 7.37792 6.46032 7.36763 6.45328C7.36434 6.45001 7.36101 6.44678 7.35763 6.4436C7.34787 6.43681 7.33787 6.43034 7.32763 6.42424C6.76758 6.09263 6.34755 5.58224 6.13953 4.9809C6.10672 4.88497 6.04363 4.80139 5.95914 4.74192C5.87466 4.68244 5.77301 4.65002 5.6685 4.64927V4.63771ZM18.3315 4.63771C18.2272 4.63866 18.1257 4.67112 18.0415 4.73059C17.9572 4.79005 17.8942 4.87344 17.8615 4.96922C17.6537 5.57039 17.2329 6.08133 16.6734 6.41174C16.6686 6.41488 16.664 6.41811 16.6594 6.42141C16.6533 6.42452 16.6473 6.42775 16.6414 6.43109C16.638 6.43427 16.6347 6.4375 16.6314 6.44077C16.6214 6.44783 16.6117 6.4552 16.6024 6.46295C16.599 6.46613 16.5957 6.46936 16.5924 6.47263C16.5837 6.48103 16.5754 6.48972 16.5674 6.49871C16.5479 6.51788 16.5302 6.53866 16.5144 6.56067C16.5099 6.56702 16.5055 6.57336 16.5014 6.57991C16.4965 6.58752 16.4918 6.5953 16.4874 6.60316C16.4846 6.60827 16.4819 6.61342 16.4794 6.61862C16.4759 6.62499 16.4725 6.63146 16.4694 6.63797C16.4653 6.64816 16.4617 6.65846 16.4584 6.66889C16.4577 6.66889 16.457 6.66889 16.4564 6.66889C16.4526 6.67973 16.4493 6.69075 16.4464 6.70182C16.4425 6.71457 16.4391 6.72739 16.4364 6.74041C16.4356 6.74491 16.435 6.74946 16.4344 6.75398C16.4328 6.76136 16.4315 6.76873 16.4304 6.77617C16.4295 6.78357 16.4288 6.79105 16.4284 6.79848C16.4283 6.80234 16.4283 6.80617 16.4284 6.81004C16.4273 6.84109 16.4293 6.87212 16.4344 6.9028C16.435 6.90732 16.4356 6.91187 16.4364 6.91637C16.4381 6.92513 16.4401 6.93381 16.4424 6.94246C16.4436 6.94634 16.445 6.95029 16.4464 6.95414C16.4543 6.98476 16.4654 7.01447 16.4794 7.04301C16.48 7.04301 16.4807 7.04301 16.4814 7.04301C16.482 7.04301 16.4827 7.04301 16.4834 7.04301C16.5037 7.08159 16.5292 7.11734 16.5594 7.14934C16.562 7.1526 16.5647 7.15583 16.5674 7.15902C16.576 7.16805 16.585 7.17685 16.5944 7.18522C16.5977 7.18849 16.601 7.1916 16.6044 7.19478C16.6141 7.20255 16.6241 7.21004 16.6344 7.21708C16.6377 7.22035 16.641 7.22358 16.6444 7.22676C16.6541 7.23355 16.6641 7.24002 16.6744 7.24611C16.6783 7.2494 16.6823 7.25263 16.6864 7.25579C16.7163 7.27175 16.7478 7.28463 16.7804 7.29438C16.8235 7.30757 16.8682 7.31512 16.9134 7.31669C16.9174 7.31673 16.9214 7.31673 16.9254 7.31669C16.9377 7.31713 16.9501 7.31713 16.9624 7.31669C16.9667 7.31674 16.9711 7.31674 16.9754 7.31669C16.9872 7.31388 16.9989 7.31064 17.0104 7.30701C17.0151 7.30707 17.0197 7.30707 17.0244 7.30701C17.0362 7.3042 17.0479 7.30097 17.0594 7.29733C17.0641 7.2974 17.0687 7.2974 17.0734 7.29733C17.1123 7.28565 17.1496 7.26937 17.1844 7.24895H17.1924C17.1937 7.24895 17.1951 7.24895 17.1964 7.24895C17.9364 6.83983 18.8022 6.69703 19.6406 6.8458C19.7061 6.85948 19.7737 6.86034 19.8395 6.84828C19.9053 6.83621 19.9679 6.81148 20.0236 6.77558C20.0793 6.73968 20.127 6.69333 20.1639 6.63927C20.2007 6.58521 20.2259 6.52449 20.238 6.46083C20.2502 6.39717 20.2489 6.3319 20.2344 6.2687C20.2199 6.2055 20.1925 6.14571 20.1536 6.09297C20.1148 6.04024 20.0654 5.99555 20.0083 5.96162C19.9513 5.92769 19.8878 5.90517 19.8216 5.89541C19.4031 5.82647 18.9767 5.81384 18.5545 5.85776C18.6545 5.67601 18.7415 5.48655 18.8095 5.28739C18.8351 5.21433 18.8421 5.13645 18.8302 5.06021C18.8182 4.98397 18.7876 4.91153 18.7408 4.84907C18.694 4.78662 18.6324 4.73596 18.5612 4.7012C18.49 4.66644 18.4113 4.64861 18.3315 4.64927V4.63771ZM9.12677 6.14006C9.04007 6.14329 8.95573 6.16824 8.88204 6.21252C8.80835 6.25681 8.74785 6.31888 8.70648 6.39262C8.66512 6.46635 8.64431 6.54927 8.64611 6.63313C8.64791 6.717 8.67225 6.79892 8.71674 6.87094C9.25478 7.77199 9.10077 8.90117 8.33871 9.6369C8.24455 9.72754 8.19149 9.85069 8.19121 9.97915C8.19093 10.1076 8.24345 10.2308 8.33721 10.3219C8.43097 10.4129 8.5583 10.4643 8.69118 10.4646C8.82406 10.4648 8.9516 10.414 9.04576 10.3234C9.57079 9.81614 9.90808 9.15562 10.0054 8.44422C10.1026 7.73282 9.95446 7.01021 9.58381 6.38849C9.53889 6.31023 9.47237 6.24565 9.39168 6.20178C9.31099 6.15791 9.21928 6.13652 9.12677 6.14006ZM14.8232 6.14006C14.7393 6.14492 14.6581 6.17009 14.5869 6.21335C14.5158 6.25661 14.4571 6.31654 14.4162 6.38754C14.0455 7.00926 13.8974 7.73188 13.9946 8.44328C14.0919 9.15467 14.4292 9.81519 14.9542 10.3225C15.0008 10.3673 15.056 10.4029 15.1168 10.4271C15.1776 10.4514 15.2427 10.4638 15.3085 10.4637C15.3742 10.4636 15.4393 10.451 15.5 10.4265C15.5607 10.4021 15.6159 10.3664 15.6623 10.3214C15.7087 10.2764 15.7455 10.2231 15.7706 10.1643C15.7957 10.1056 15.8085 10.0426 15.8084 9.97903C15.8083 9.91547 15.7953 9.85255 15.7701 9.79386C15.7448 9.73517 15.7078 9.68178 15.6613 9.6369C15.2914 9.28094 15.0539 8.81672 14.9857 8.31653C14.9175 7.81633 15.0225 7.30833 15.2843 6.87188C15.329 6.79985 15.3535 6.71784 15.3555 6.63384C15.3574 6.54984 15.3366 6.46673 15.2952 6.39285C15.2538 6.31897 15.1932 6.25686 15.1194 6.21252C15.0456 6.16818 14.9611 6.1432 14.8742 6.14006C14.8572 6.13922 14.8402 6.13922 14.8232 6.14006ZM2.19722 9.83222C2.1233 9.83777 2.05159 9.85912 1.98727 9.89476C1.92295 9.93041 1.86764 9.97942 1.82533 10.0383C1.78302 10.0971 1.75478 10.1644 1.74264 10.2351C1.73051 10.3058 1.7348 10.3782 1.75518 10.4471C1.9092 11.0001 2.21222 11.5048 2.63125 11.909C2.67666 11.9579 2.73192 11.9974 2.79366 12.025C2.85539 12.0526 2.92231 12.0677 2.9903 12.0695C3.0583 12.0712 3.12595 12.0595 3.18911 12.0351C3.25228 12.0107 3.30963 11.9742 3.35766 11.9276C3.40569 11.881 3.44339 11.8254 3.46845 11.7643C3.49351 11.7031 3.5054 11.6377 3.5034 11.572C3.5014 11.5063 3.48555 11.4416 3.45682 11.382C3.42809 11.3224 3.38709 11.2692 3.33631 11.2254C3.04177 10.9406 2.83 10.5858 2.72226 10.1968C2.69537 10.0943 2.63445 10.0031 2.54882 9.93725C2.4632 9.87142 2.3576 9.83447 2.24822 9.83222C2.23123 9.83138 2.21421 9.83138 2.19722 9.83222ZM21.7498 9.83222C21.6407 9.83489 21.5356 9.87204 21.4504 9.93784C21.3652 10.0036 21.3045 10.0946 21.2777 10.1968C21.1697 10.5854 20.9587 10.9412 20.6637 11.2254C20.6129 11.2692 20.5719 11.3224 20.5432 11.382C20.5144 11.4416 20.4986 11.5063 20.4966 11.572C20.4946 11.6377 20.5065 11.7031 20.5316 11.7643C20.5566 11.8254 20.5943 11.881 20.6423 11.9276C20.6904 11.9742 20.7477 12.0107 20.8109 12.0351C20.8741 12.0595 20.9417 12.0712 21.0097 12.0695C21.0777 12.0677 21.1446 12.0526 21.2063 12.025C21.2681 11.9974 21.3233 11.9579 21.3687 11.909C21.7888 11.5048 22.0908 11.0001 22.2448 10.4471C22.2661 10.3743 22.2695 10.2976 22.2545 10.2233C22.2396 10.149 22.2068 10.0792 22.1589 10.0194C22.1109 9.95957 22.0491 9.91145 21.9784 9.87895C21.9077 9.84645 21.83 9.83042 21.7518 9.83222C21.7511 9.83222 21.7504 9.83222 21.7498 9.83222ZM7.89567 13.48C7.86677 13.4808 7.83799 13.4841 7.80967 13.4897C7.809 13.4897 7.80833 13.4897 7.80767 13.4897C7.76006 13.4977 7.71391 13.5123 7.67065 13.5331C7.66799 13.5331 7.66532 13.5331 7.66265 13.5331C7.66032 13.5331 7.65799 13.5331 7.65565 13.5331C7.64959 13.5362 7.64358 13.5394 7.63765 13.5428C7.6336 13.5459 7.6296 13.5492 7.62565 13.5525C6.8854 13.9617 6.01932 14.1048 5.18046 13.9565C5.11431 13.941 5.04557 13.9387 4.97846 13.9497C4.91135 13.9607 4.84727 13.9849 4.79016 14.0208C4.73305 14.0566 4.6841 14.1033 4.64632 14.158C4.60854 14.2128 4.58273 14.2744 4.57045 14.3392C4.55818 14.4039 4.55971 14.4703 4.57494 14.5345C4.59018 14.5986 4.6188 14.6591 4.65906 14.7122C4.69932 14.7653 4.75036 14.8098 4.80907 14.8431C4.86777 14.8764 4.93289 14.8979 5.00044 14.906C5.41923 14.9758 5.84604 14.9889 6.26854 14.9447C6.16657 15.1275 6.08092 15.3182 6.01252 15.5151C5.98727 15.5762 5.97521 15.6416 5.97707 15.7074C5.97893 15.7733 5.99467 15.8381 6.02333 15.8978C6.05199 15.9575 6.09297 16.0109 6.14375 16.0548C6.19453 16.0986 6.25405 16.132 6.31864 16.1528C6.38324 16.1737 6.45156 16.1816 6.51941 16.176C6.58726 16.1704 6.65322 16.1514 6.71323 16.1203C6.77325 16.0892 6.82605 16.0466 6.86842 15.9951C6.91078 15.9435 6.94181 15.8841 6.9596 15.8205C7.16568 15.2236 7.58189 14.7155 8.13569 14.3848C8.13769 14.3848 8.13969 14.3848 8.14169 14.3848H8.14769C8.1905 14.3602 8.22926 14.3296 8.2627 14.294C8.27102 14.2855 8.27903 14.2769 8.2867 14.2679C8.36066 14.1762 8.39793 14.0617 8.39168 13.9456C8.38544 13.8294 8.33609 13.7195 8.2527 13.6357C8.2453 13.6277 8.23763 13.6199 8.2297 13.6124C8.22511 13.6085 8.22044 13.6046 8.2157 13.6008C8.21503 13.6008 8.21437 13.6008 8.2137 13.6008C8.17611 13.5699 8.13398 13.5445 8.08869 13.5254C8.07915 13.5213 8.06948 13.5173 8.05969 13.5138C8.05376 13.5104 8.04775 13.5072 8.04168 13.5041C8.04068 13.5041 8.03968 13.5041 8.03868 13.5041C8.02388 13.4995 8.00886 13.4957 7.99368 13.4925C7.98313 13.4889 7.97245 13.4857 7.96168 13.4828C7.94453 13.4787 7.92717 13.4755 7.90967 13.4732C7.90501 13.4731 7.90034 13.4731 7.89567 13.4732V13.48ZM16.0863 13.48C16.0428 13.482 15.9998 13.4894 15.9583 13.5022C15.957 13.5022 15.9556 13.5022 15.9543 13.5022C15.892 13.5214 15.8343 13.5523 15.7843 13.5931C15.7836 13.5931 15.783 13.5931 15.7823 13.5931C15.7211 13.6434 15.6734 13.7072 15.6432 13.7791C15.6129 13.851 15.601 13.9288 15.6084 14.0061C15.6159 14.0834 15.6425 14.1579 15.686 14.2231C15.7295 14.2884 15.7886 14.3426 15.8583 14.3811C16.4154 14.7117 16.8334 15.2201 17.0404 15.8196C17.0586 15.8828 17.0898 15.9418 17.1323 15.9929C17.1748 16.0441 17.2276 16.0863 17.2876 16.1171C17.3475 16.1479 17.4133 16.1665 17.4809 16.172C17.5485 16.1774 17.6166 16.1694 17.6809 16.1486C17.7453 16.1278 17.8046 16.0946 17.8552 16.0509C17.9058 16.0072 17.9467 15.954 17.9754 15.8945C18.004 15.8351 18.0199 15.7705 18.022 15.705C18.0241 15.6394 18.0123 15.5741 17.9875 15.5131C17.9191 15.3162 17.8334 15.1254 17.7315 14.9427C18.1515 14.9814 18.5775 14.9804 18.9996 14.906C19.066 14.8966 19.1299 14.8744 19.1873 14.8406C19.2447 14.8068 19.2945 14.7623 19.3336 14.7095C19.3728 14.6567 19.4006 14.5968 19.4153 14.5334C19.43 14.47 19.4313 14.4045 19.4192 14.3406C19.4071 14.2767 19.3818 14.2158 19.3448 14.1615C19.3079 14.1073 19.2599 14.0609 19.204 14.025C19.148 13.9891 19.0851 13.9643 19.0191 13.9524C18.953 13.9405 18.8852 13.9416 18.8195 13.9556C17.9805 14.1045 17.1144 13.9556 16.3743 13.5515C16.3723 13.5515 16.3703 13.5515 16.3683 13.5515C16.3674 13.551 16.3664 13.5507 16.3653 13.5507C16.3643 13.5507 16.3633 13.551 16.3623 13.5515C16.3564 13.5482 16.3504 13.5449 16.3443 13.5418C16.3407 13.5386 16.3371 13.5353 16.3333 13.5322C16.332 13.5322 16.3307 13.5322 16.3293 13.5322C16.2851 13.5111 16.238 13.4964 16.1893 13.4886C16.1613 13.483 16.1329 13.4798 16.1043 13.4789C16.0997 13.4789 16.095 13.4789 16.0903 13.4789C16.089 13.4789 16.0877 13.4789 16.0863 13.4789V13.48ZM10.3489 15.8553C10.2166 15.8574 10.0905 15.91 9.99833 16.0017C9.9061 16.0934 9.85523 16.2167 9.85683 16.3446C9.85683 16.9595 9.35179 17.4496 8.71374 17.4496C8.58112 17.4496 8.45393 17.5006 8.36016 17.5912C8.26638 17.6819 8.2137 17.8048 8.2137 17.933C8.2137 18.0612 8.26638 18.1841 8.36016 18.2748C8.45393 18.3654 8.58112 18.4164 8.71374 18.4164C9.28157 18.4146 9.82563 18.1957 10.2271 17.8076C10.6287 17.4194 10.8551 16.8936 10.8569 16.3446C10.8577 16.28 10.8451 16.2159 10.8198 16.156C10.7946 16.0962 10.7572 16.0418 10.7098 15.9962C10.6624 15.9506 10.6061 15.9147 10.5441 15.8905C10.4821 15.8663 10.4157 15.8543 10.3489 15.8553ZM13.6021 15.8553C13.4755 15.8651 13.3575 15.9212 13.2721 16.012C13.1866 16.1029 13.1402 16.2218 13.1421 16.3446C13.1439 16.8937 13.3705 17.4197 13.7722 17.8079C14.1739 18.1961 14.7183 18.4149 15.2863 18.4164C15.4189 18.4164 15.5461 18.3654 15.6398 18.2748C15.7336 18.1841 15.7863 18.0612 15.7863 17.933C15.7863 17.8048 15.7336 17.6819 15.6398 17.5912C15.5461 17.5006 15.4189 17.4496 15.2863 17.4496C15.1359 17.4505 14.9868 17.4226 14.8477 17.3674C14.7086 17.3121 14.5822 17.2307 14.4759 17.1279C14.3696 17.0251 14.2854 16.903 14.2283 16.7685C14.1712 16.6341 14.1422 16.49 14.1432 16.3446C14.1448 16.2167 14.0939 16.0934 14.0017 16.0017C13.9095 15.91 13.7834 15.8574 13.6511 15.8553C13.6345 15.8545 13.6188 15.8545 13.6021 15.8553Z" fill="white"/>
</g>
</svg>
