<svg width="24" height="24" viewBox="0 0 24 24" fill="none" xmlns="http://www.w3.org/2000/svg">
<g id="Database">
<path id="Vector" d="M12 10C6.3925 10 2 8.0235 2 5.5C2 2.9765 6.3925 1 12 1C17.6075 1 22 2.9765 22 5.5C22 8.0235 17.6075 10 12 10ZM12 2C7.743 2 3 3.4375 3 5.5C3 7.5625 7.743 9 12 9C16.257 9 21 7.5625 21 5.5C21 3.4375 16.257 2 12 2Z" fill="white"/>
<path id="Vector_2" d="M12 14C6.3925 14 2 12.0235 2 9.5V5.5C2 5.36739 2.05268 5.24021 2.14645 5.14645C2.24021 5.05268 2.36739 5 2.5 5C2.63261 5 2.75979 5.05268 2.85355 5.14645C2.94732 5.24021 3 5.36739 3 5.5V9.5C3 11.5625 7.743 13 12 13C16.257 13 21 11.5625 21 9.5V5.5C21 5.36739 21.0527 5.24021 21.1464 5.14645C21.2402 5.05268 21.3674 5 21.5 5C21.6326 5 21.7598 5.05268 21.8536 5.14645C21.9473 5.24021 22 5.36739 22 5.5V9.5C22 12.0235 17.6075 14 12 14Z" fill="white"/>
<path id="Vector_3" d="M12 18.5C6.3925 18.5 2 16.5235 2 14V9.5C2 9.36739 2.05268 9.24021 2.14645 9.14645C2.24021 9.05268 2.36739 9 2.5 9C2.63261 9 2.75979 9.05268 2.85355 9.14645C2.94732 9.24021 3 9.36739 3 9.5V14C3 16.0625 7.743 17.5 12 17.5C16.257 17.5 21 16.0625 21 14V9.5C21 9.36739 21.0527 9.24021 21.1464 9.14645C21.2402 9.05268 21.3674 9 21.5 9C21.6326 9 21.7598 9.05268 21.8536 9.14645C21.9473 9.24021 22 9.36739 22 9.5V14C22 16.5235 17.6075 18.5 12 18.5Z" fill="white"/>
<path id="Vector_4" d="M12 23C6.3925 23 2 21.0235 2 18.5V14C2 13.8674 2.05268 13.7402 2.14645 13.6464C2.24021 13.5527 2.36739 13.5 2.5 13.5C2.63261 13.5 2.75979 13.5527 2.85355 13.6464C2.94732 13.7402 3 13.8674 3 14V18.5C3 20.5625 7.743 22 12 22C16.257 22 21 20.5625 21 18.5V14C21 13.8674 21.0527 13.7402 21.1464 13.6464C21.2402 13.5527 21.3674 13.5 21.5 13.5C21.6326 13.5 21.7598 13.5527 21.8536 13.6464C21.9473 13.7402 22 13.8674 22 14V18.5C22 21.0235 17.6075 23 12 23Z" fill="white"/>
</g>
</svg>
