<svg width="24" height="24" viewBox="0 0 24 24" fill="none" xmlns="http://www.w3.org/2000/svg">
<g id="fitness">
<path id="Vector" d="M21.75 6.375H20.625V5.25C20.625 4.63125 20.1187 4.125 19.5 4.125H18.375C17.7563 4.125 17.25 4.63125 17.25 5.25V8.625H14.625V8.25C14.625 7.94625 14.505 7.66125 14.2988 7.45875C14.0888 7.245 13.8038 7.125 13.5 7.125C13.2975 7.125 13.1137 7.18125 12.9487 7.275C12.9037 7.2075 12.855 7.14 12.795 7.08375C12.5887 6.87 12.3038 6.75 12 6.75C11.7113 6.75 11.4487 6.8625 11.25 7.0425C11.0437 6.855 10.785 6.75 10.5 6.75C10.0987 6.75 9.75 6.96 9.55125 7.275C9.38625 7.18125 9.19875 7.125 9 7.125C8.38125 7.125 7.875 7.63125 7.875 8.25V8.625H6.75V5.25C6.75 4.63125 6.24375 4.125 5.625 4.125H4.5C3.88125 4.125 3.375 4.63125 3.375 5.25V6.375H2.25C1.63125 6.375 1.125 6.88125 1.125 7.5V13.5C1.125 14.1187 1.63125 14.625 2.25 14.625H3.375V15.75C3.375 16.3687 3.88125 16.875 4.5 16.875H5.625C6.24375 16.875 6.75 16.3687 6.75 15.75V13.125H7.875V14.25C7.875 14.3325 7.90125 14.4112 7.95 14.475L9 15.8738V18.75C9 19.3687 9.50625 19.875 10.125 19.875H13.125C13.7437 19.875 14.25 19.3687 14.25 18.75V15.8738L15.3 14.475C15.3487 14.4112 15.375 14.3325 15.375 14.25V13.125H17.25V15.75C17.25 16.3687 17.7563 16.875 18.375 16.875H19.5C20.1187 16.875 20.625 16.3687 20.625 15.75V14.625H21.75C22.3687 14.625 22.875 14.1187 22.875 13.5V7.5C22.875 6.88125 22.3687 6.375 21.75 6.375ZM3.375 13.875H2.25C2.04375 13.875 1.875 13.7063 1.875 13.5V7.5C1.875 7.29375 2.04375 7.125 2.25 7.125H3.375V13.875ZM6 9V12.75V15.75C6 15.9563 5.83125 16.125 5.625 16.125H4.5C4.29375 16.125 4.125 15.9563 4.125 15.75V14.25V6.75V5.25C4.125 5.04375 4.29375 4.875 4.5 4.875H5.625C5.83125 4.875 6 5.04375 6 5.25V9ZM13.125 8.25C13.125 8.04375 13.2937 7.875 13.5 7.875C13.6013 7.875 13.6912 7.9125 13.7662 7.99125C13.8375 8.05875 13.875 8.14875 13.875 8.25V9.75C13.875 9.95625 13.7063 10.125 13.5 10.125C13.2937 10.125 13.125 9.95625 13.125 9.75V8.25ZM11.625 7.875C11.625 7.66875 11.7937 7.5 12 7.5C12.2288 7.5225 12.3525 7.65 12.375 7.875V9.75C12.375 9.95625 12.2063 10.125 12 10.125C11.7937 10.125 11.625 9.95625 11.625 9.75V7.875ZM10.125 8.25V7.875C10.125 7.66875 10.2937 7.5 10.5 7.5C10.6013 7.5 10.6912 7.5375 10.7662 7.61625C10.8375 7.68375 10.875 7.77375 10.875 7.875V9.75C10.875 9.95625 10.7063 10.125 10.5 10.125C10.2937 10.125 10.125 9.95625 10.125 9.75V8.25ZM8.625 8.25C8.625 8.04375 8.79375 7.875 9 7.875C9.10125 7.875 9.19125 7.9125 9.26625 7.99125C9.3375 8.05875 9.375 8.14875 9.375 8.25V9.75C9.375 9.95625 9.20625 10.125 9 10.125C8.79375 10.125 8.625 9.95625 8.625 9.75V8.25ZM14.625 14.1262L13.575 15.525C13.5263 15.5888 13.5 15.6675 13.5 15.75V18.75C13.5 18.9563 13.3313 19.125 13.125 19.125H10.125C9.91875 19.125 9.75 18.9563 9.75 18.75V15.75C9.75 15.6675 9.72375 15.5888 9.675 15.525L8.625 14.1262V13.125H11.6925C11.8463 13.56 12.2588 13.875 12.75 13.875H13.5C13.7063 13.875 13.875 13.7063 13.875 13.5C13.875 13.2937 13.7063 13.125 13.5 13.125H12.75C12.5437 13.125 12.375 12.9563 12.375 12.75C12.375 12.6487 12.4125 12.5588 12.4913 12.4838C12.5588 12.4125 12.6487 12.375 12.75 12.375H14.25C14.4563 12.375 14.625 12.5437 14.625 12.75V14.1262ZM17.25 12.375H15.3075C15.1537 11.94 14.7412 11.625 14.25 11.625H12.75C12.4462 11.625 12.1612 11.745 11.9587 11.9513C11.835 12.0713 11.7488 12.2175 11.6925 12.375H6.75V9.375H7.875V9.75C7.875 10.3687 8.38125 10.875 9 10.875C9.28875 10.875 9.55125 10.7625 9.75 10.5825C9.94875 10.7625 10.2113 10.875 10.5 10.875C10.7887 10.875 11.0513 10.7625 11.25 10.5825C11.4487 10.7625 11.7113 10.875 12 10.875C12.2887 10.875 12.5513 10.7625 12.75 10.5825C12.9487 10.7625 13.2113 10.875 13.5 10.875C14.1187 10.875 14.625 10.3687 14.625 9.75V9.375H17.25V12.375ZM19.875 6.75V14.25V15.75C19.875 15.9563 19.7063 16.125 19.5 16.125H18.375C18.1687 16.125 18 15.9563 18 15.75V12.75V9V5.25C18 5.04375 18.1687 4.875 18.375 4.875H19.5C19.7063 4.875 19.875 5.04375 19.875 5.25V6.75ZM22.125 13.5C22.125 13.7063 21.9563 13.875 21.75 13.875H20.625V7.125H21.75C21.9563 7.125 22.125 7.29375 22.125 7.5V13.5Z" fill="#5CDFE5"/>
</g>
</svg>
