<svg width="24" height="24" viewBox="0 0 24 24" fill="none" xmlns="http://www.w3.org/2000/svg">
<g id="Notes">
<path id="Vector" d="M22.0361 1.96472C21.0993 1.02789 19.4632 1.02623 18.5247 1.96472L16.7694 3.72003L16.7611 3.7283H4.54759C2.72193 3.7283 1.23724 5.21299 1.23724 7.03865V19.4524C1.23724 21.2781 2.72193 22.7628 4.54759 22.7628H16.9614C18.787 22.7628 20.2717 21.2781 20.2717 19.4524V7.23892L20.28 7.23065L22.0353 5.47534C22.5037 5.00692 22.7628 4.38292 22.7628 3.72003C22.7628 3.0563 22.5037 2.4323 22.0361 1.96472ZM12.8491 12.3211L11.3859 12.6141L11.6789 11.1509L17.9388 4.89106L19.109 6.06127L12.8491 12.3211ZM4.54759 5.38347H15.1059L11.7956 8.69382H2.89242V7.03865C2.89242 6.12582 3.63559 5.38347 4.54759 5.38347ZM16.9614 21.1076H4.54759C3.63476 21.1076 2.89242 20.3653 2.89242 19.4524V10.349H10.1901C10.1508 10.4214 10.1223 10.4992 10.1057 10.5799L9.52055 13.5054C9.4944 13.6388 9.50147 13.7767 9.54112 13.9067C9.58078 14.0368 9.65181 14.1551 9.74795 14.2512C9.8441 14.3474 9.96242 14.4184 10.0925 14.4581C10.2225 14.4977 10.3604 14.5048 10.4938 14.4786L13.4193 13.8935C13.5793 13.8611 13.7263 13.7826 13.8422 13.6676L17.1617 10.3482H18.6166V19.4516C18.6161 19.8905 18.4416 20.3114 18.1313 20.6218C17.821 20.9322 17.4003 21.107 16.9614 21.1076ZM20.8651 4.30513L20.28 4.89023L19.1098 3.72003L19.6949 3.13492C19.8526 2.98439 20.0622 2.90046 20.2802 2.90062C20.4981 2.90077 20.7077 2.98499 20.8651 3.13575C20.9421 3.21241 21.0032 3.30353 21.0449 3.40387C21.0866 3.5042 21.108 3.61179 21.108 3.72044C21.108 3.82909 21.0866 3.93668 21.0449 4.03701C21.0032 4.13735 20.9421 4.22847 20.8651 4.30513Z" fill="#5CDFE5"/>
</g>
</svg>
