<svg width="24" height="24" viewBox="0 0 24 24" fill="none" xmlns="http://www.w3.org/2000/svg">
<g id="Password">
<path id="Vector" d="M18 3H6C5.20435 3 4.44129 3.31607 3.87868 3.87868C3.31607 4.44129 3 5.20435 3 6V18C3 18.7956 3.31607 19.5587 3.87868 20.1213C4.44129 20.6839 5.20435 21 6 21H18C18.7956 21 19.5587 20.6839 20.1213 20.1213C20.6839 19.5587 21 18.7956 21 18V6C21 5.20435 20.6839 4.44129 20.1213 3.87868C19.5587 3.31607 18.7956 3 18 3ZM19.5 18C19.5 18.3978 19.342 18.7794 19.0607 19.0607C18.7794 19.342 18.3978 19.5 18 19.5H6C5.60218 19.5 5.22064 19.342 4.93934 19.0607C4.65804 18.7794 4.5 18.3978 4.5 18V6C4.5 5.60218 4.65804 5.22064 4.93934 4.93934C5.22064 4.65804 5.60218 4.5 6 4.5H18C18.3978 4.5 18.7794 4.65804 19.0607 4.93934C19.342 5.22064 19.5 5.60218 19.5 6V18ZM14.8643 9.31575C14.2852 9.31773 13.7224 9.50727 13.2601 9.85597C12.7978 10.2047 12.461 10.6938 12.3 11.25H7.2C7.00109 11.25 6.81032 11.329 6.66967 11.4697C6.52902 11.6103 6.45 11.8011 6.45 12V13.9343C6.45 14.1332 6.52902 14.3239 6.66967 14.4646C6.81032 14.6052 7.00109 14.6843 7.2 14.6843C7.39891 14.6843 7.58968 14.6052 7.73033 14.4646C7.87098 14.3239 7.95 14.1332 7.95 13.9343V12.75H8.7V13.9343C8.7 14.1332 8.77902 14.3239 8.91967 14.4646C9.06032 14.6052 9.25109 14.6843 9.45 14.6843C9.64891 14.6843 9.83968 14.6052 9.98033 14.4646C10.121 14.3239 10.2 14.1332 10.2 13.9343V12.75H12.3C12.4403 13.2274 12.7107 13.6562 13.081 13.9886C13.4513 14.3209 13.9068 14.5435 14.3966 14.6315C14.8863 14.7195 15.3908 14.6694 15.8536 14.4868C16.3165 14.3041 16.7193 13.9962 17.017 13.5976C17.3146 13.1989 17.4954 12.7252 17.539 12.2295C17.5826 11.7339 17.4874 11.2359 17.2639 10.7914C17.0404 10.3468 16.6975 9.97334 16.2737 9.7127C15.8498 9.45207 15.3618 9.31462 14.8643 9.31575ZM14.8643 13.1843C14.6301 13.184 14.4013 13.1142 14.2067 12.9839C14.0122 12.8536 13.8606 12.6686 13.7712 12.4522C13.6818 12.2357 13.6586 11.9977 13.7044 11.768C13.7503 11.5384 13.8632 11.3276 14.0289 11.1621C14.1946 10.9966 14.4056 10.884 14.6353 10.8384C14.8649 10.7928 15.103 10.8164 15.3193 10.906C15.5356 10.9957 15.7205 11.1475 15.8505 11.3422C15.9806 11.5369 16.05 11.7658 16.05 12C16.0496 12.3142 15.9245 12.6154 15.7022 12.8375C15.4798 13.0595 15.1785 13.1843 14.8643 13.1843Z" fill="#5CDFE5"/>
</g>
</svg>
