<svg width="24" height="24" viewBox="0 0 24 24" fill="none" xmlns="http://www.w3.org/2000/svg">
<g id="Productivity" clip-path="url(#clip0_6_369)">
<path id="Vector" d="M12.5455 4.87273C12.8364 4.87273 13.0546 4.65455 13.0546 4.36364C13.0546 4.07273 12.8364 3.85455 12.5455 3.85455C12.2546 3.85455 12.0364 4.07273 12.0364 4.36364C12.0364 4.61819 12.2546 4.87273 12.5455 4.87273Z" fill="#5CDFE5"/>
<path id="Vector_2" d="M9.12727 4.83635L9.59999 4.90908C9.67272 4.90908 9.74545 4.98181 9.74545 5.05453C9.81817 5.30908 9.92727 5.56362 10.0364 5.78181C10.0727 5.85453 10.0727 5.92726 10.0364 5.99999L9.74545 6.39999C9.67272 6.47271 9.70908 6.58181 9.78181 6.65453L10.2182 7.0909C10.2909 7.16362 10.4 7.16362 10.4727 7.12726L10.8727 6.83635C10.9454 6.79999 11.0182 6.79999 11.0909 6.83635C11.3091 6.98181 11.5636 7.05453 11.8182 7.12726C11.8909 7.16362 11.9636 7.19999 11.9636 7.27271L12.0364 7.74544C12.0364 7.85453 12.1454 7.8909 12.2182 7.8909H12.8364C12.9454 7.8909 13.0182 7.81817 13.0182 7.74544L13.0909 7.27271C13.0909 7.19999 13.1636 7.12726 13.2364 7.12726C13.4909 7.05453 13.7454 6.94544 13.9636 6.83635C14.0364 6.79999 14.1091 6.79999 14.1818 6.83635L14.5818 7.12726C14.6545 7.16362 14.7636 7.16362 14.8364 7.0909L15.2727 6.65453C15.3454 6.58181 15.3454 6.47271 15.3091 6.39999L15.0182 5.99999C14.9818 5.92726 14.9818 5.85453 15.0182 5.78181C15.1636 5.56362 15.2727 5.30908 15.3091 5.05453C15.3454 4.98181 15.3818 4.90908 15.4545 4.90908L15.9273 4.83635C16.0364 4.79999 16.0727 4.72726 16.0727 4.65453V4.03635C16.0727 3.92726 16 3.85453 15.9273 3.85453L15.4545 3.78181C15.3818 3.78181 15.3091 3.70908 15.3091 3.63635C15.2364 3.38181 15.1273 3.12726 15.0182 2.90908C14.9818 2.83635 14.9818 2.76362 15.0182 2.6909L15.3091 2.2909C15.3818 2.21817 15.3454 2.10908 15.2727 2.03635L14.8364 1.59999C14.7636 1.52726 14.6545 1.52726 14.5818 1.56362L14.1818 1.85453C14.1091 1.8909 14.0364 1.8909 13.9636 1.85453C13.7454 1.70908 13.4909 1.59999 13.2364 1.56362C13.1636 1.52726 13.0909 1.4909 13.0909 1.41817L13.0182 0.945442C12.9818 0.836351 12.9091 0.799988 12.8364 0.799988H12.2182C12.1091 0.799988 12.0364 0.872715 12.0364 0.945442L11.9636 1.41817C11.9636 1.4909 11.8909 1.56362 11.8182 1.56362C11.5636 1.63635 11.3091 1.74544 11.0909 1.85453C11.0182 1.8909 10.9454 1.8909 10.8727 1.85453L10.4727 1.56362C10.4 1.4909 10.2909 1.52726 10.2182 1.59999L9.81817 2.03635C9.74545 2.10908 9.74545 2.21817 9.78181 2.2909L10.0727 2.6909C10.1091 2.76362 10.1091 2.83635 10.0727 2.90908C9.92727 3.12726 9.85454 3.38181 9.78181 3.63635C9.78181 3.70908 9.70908 3.78181 9.63636 3.78181L9.16363 3.85453C9.05454 3.8909 8.98181 3.96362 8.98181 4.03635V4.65453C8.98181 4.76362 9.05454 4.83635 9.12727 4.83635ZM12.5454 3.27272C13.1273 3.27272 13.6 3.74544 13.6 4.32726C13.6 4.90908 13.1273 5.38181 12.5454 5.38181C11.9636 5.38181 11.4909 4.90908 11.4909 4.32726C11.4909 3.78181 11.9636 3.27272 12.5454 3.27272Z" fill="#5CDFE5"/>
<path id="Vector_3" d="M18.5455 2.1091L20 3.56365C20.0364 3.60001 20.0728 3.67274 20.0728 3.74546C20.0728 3.81819 20.0364 3.89092 20 3.92728L12.7273 11.2C12.6182 11.3091 12.4364 11.3091 12.3273 11.2L7.78185 6.65455C7.49094 6.36365 6.87276 6.36365 6.54548 6.65455L0.909119 12.2546V14.6909L6.94548 8.65456C7.05457 8.54546 7.23639 8.54546 7.34548 8.65456L11.9273 13.2364C12.2546 13.5636 12.8364 13.5636 13.1637 13.2364L21.2364 5.16365C21.3455 5.05455 21.5273 5.05455 21.6364 5.16365L23.0909 6.61819V2.1091H18.5455Z" fill="#5CDFE5"/>
<path id="Vector_4" d="M5.6727 23.2364H3.41815V14.9818L5.6727 12.7273V23.2364Z" fill="#5CDFE5"/>
<path id="Vector_5" d="M18.3273 23.2364H20.6182V8.58182L18.3273 10.8364V23.2364Z" fill="#5CDFE5"/>
<path id="Vector_6" d="M15.6364 23.2364H13.3818V15.3454C13.8182 15.2 14.2182 14.9818 14.5455 14.6545L15.6364 13.5636V23.2364ZM10.6546 23.2364H8.36366V12.4727L10.5455 14.6545C10.5818 14.6909 10.6182 14.7273 10.6546 14.7636V23.2364ZM5.20003 3.4909C5.20003 3.34544 5.30912 3.19999 5.49094 3.19999H5.78185C5.63639 2.07272 4.7273 1.19999 3.63639 1.05453V1.34544C3.63639 1.4909 3.5273 1.63635 3.34548 1.63635C3.20003 1.63635 3.05457 1.52726 3.05457 1.34544V1.05453C1.96366 1.19999 1.05457 2.07272 0.909119 3.19999H1.20003C1.34548 3.19999 1.49094 3.30908 1.49094 3.4909C1.49094 3.63635 1.38185 3.78181 1.20003 3.78181H0.909119C1.01821 4.90908 1.9273 5.81817 3.05457 5.92726V5.63635C3.05457 5.4909 3.16366 5.34544 3.34548 5.34544C3.49094 5.34544 3.63639 5.45454 3.63639 5.63635V5.92726C4.76366 5.81817 5.67276 4.90908 5.78185 3.78181H5.45457C5.30912 3.74544 5.20003 3.63635 5.20003 3.4909ZM4.00003 3.74544H3.34548C3.20003 3.74544 3.05457 3.63635 3.05457 3.45453V2.21817C3.05457 2.07272 3.16366 1.92726 3.34548 1.92726C3.49094 1.92726 3.63639 2.03635 3.63639 2.21817V3.19999H4.00003C4.14548 3.19999 4.29094 3.30908 4.29094 3.4909C4.25457 3.63635 4.14548 3.74544 4.00003 3.74544Z" fill="#5CDFE5"/>
</g>
<defs>
<clipPath id="clip0_6_369">
<rect width="24" height="24" fill="white"/>
</clipPath>
</defs>
</svg>
