<svg width="24" height="24" viewBox="0 0 24 24" fill="none" xmlns="http://www.w3.org/2000/svg">
<g id="Frame">
<g id="Vector">
<mask id="path-1-inside-1_6_337" fill="white">
<path d="M12 9C11.8635 9 11.746 8.95165 11.6476 8.85496C11.5492 8.75657 11.5 8.63868 11.5 8.50127C11.5 8.36217 11.5492 8.24427 11.6476 8.14758C11.746 8.04919 11.8635 8 12 8C12.1381 8 12.2556 8.04919 12.3524 8.14758C12.4508 8.24427 12.5 8.36217 12.5 8.50127C12.5 8.63868 12.4508 8.75657 12.3524 8.85496C12.2556 8.95165 12.1381 9 12 9Z"/>
</mask>
<path d="M12 9C11.8635 9 11.746 8.95165 11.6476 8.85496C11.5492 8.75657 11.5 8.63868 11.5 8.50127C11.5 8.36217 11.5492 8.24427 11.6476 8.14758C11.746 8.04919 11.8635 8 12 8C12.1381 8 12.2556 8.04919 12.3524 8.14758C12.4508 8.24427 12.5 8.36217 12.5 8.50127C12.5 8.63868 12.4508 8.75657 12.3524 8.85496C12.2556 8.95165 12.1381 9 12 9Z" fill="#5CDFE5"/>
<path d="M11.6476 8.85496L10.9405 9.56213L10.9467 9.56824L11.6476 8.85496ZM11.6476 8.14758L12.3485 8.86088L12.3547 8.85472L11.6476 8.14758ZM12.3524 8.14758L11.6396 8.8489L11.6455 8.85493L11.6515 8.86086L12.3524 8.14758ZM12.3524 8.85496L13.0591 9.56247L13.0595 9.5621L12.3524 8.85496ZM12 8C12.0525 8 12.1193 8.00987 12.1901 8.03899C12.2607 8.06804 12.3135 8.10733 12.3485 8.14168L10.9467 9.56824C11.23 9.84655 11.5983 10 12 10V8ZM12.3547 8.14782C12.3894 8.18257 12.4298 8.23581 12.4598 8.30762C12.4898 8.37967 12.5 8.44786 12.5 8.50127H10.5C10.5 8.90769 10.6573 9.27886 10.9405 9.5621L12.3547 8.14782ZM12.5 8.50127C12.5 8.5521 12.4904 8.62012 12.4598 8.69364C12.429 8.76734 12.3867 8.82325 12.3485 8.86086L10.9467 7.4343C10.6552 7.72077 10.5 8.09644 10.5 8.50127H12.5ZM12.3547 8.85472C12.3205 8.88893 12.2676 8.92921 12.1958 8.95929C12.1236 8.98952 12.0547 9 12 9V7C11.5927 7 11.2225 7.15852 10.9405 7.44044L12.3547 8.85472ZM12 9C11.9477 9 11.879 8.99011 11.8054 8.95929C11.7318 8.92846 11.6764 8.88638 11.6396 8.8489L13.0652 7.44626C12.7802 7.15658 12.4058 7 12 7V9ZM11.6515 8.86086C11.6133 8.82325 11.571 8.76734 11.5402 8.69364C11.5096 8.62012 11.5 8.5521 11.5 8.50127H13.5C13.5 8.09644 13.3448 7.72077 13.0533 7.4343L11.6515 8.86086ZM11.5 8.50127C11.5 8.44786 11.5102 8.37967 11.5402 8.30762C11.5702 8.23581 11.6106 8.18257 11.6453 8.14782L13.0595 9.5621C13.3427 9.27886 13.5 8.90769 13.5 8.50127H11.5ZM11.6457 8.14745C11.6834 8.10981 11.7388 8.06877 11.8111 8.03899C11.8833 8.0093 11.9499 8 12 8V10C12.4002 10 12.7728 9.84847 13.0591 9.56247L11.6457 8.14745Z" fill="#5CDFE5" mask="url(#path-1-inside-1_6_337)"/>
</g>
<path id="Vector_2" d="M13 12C13 11.4477 12.5523 11 12 11C11.4477 11 11 11.4477 11 12H13ZM11 16C11 16.5523 11.4477 17 12 17C12.5523 17 13 16.5523 13 16H11ZM11.6476 8.85496L10.9406 9.56218L10.9468 9.56828L11.6476 8.85496ZM11.6476 8.14758L12.3485 8.86092L12.3546 8.85478L11.6476 8.14758ZM12.3524 8.14758L11.6396 8.84901C11.6436 8.853 11.6475 8.85697 11.6515 8.8609L12.3524 8.14758ZM11 12V16H13V12H11ZM12 19C8.13401 19 5 15.866 5 12H3C3 16.9706 7.02944 21 12 21V19ZM19 12C19 15.866 15.866 19 12 19V21C16.9706 21 21 16.9706 21 12H19ZM12 5C15.866 5 19 8.13401 19 12H21C21 7.02944 16.9706 3 12 3V5ZM12 3C7.02944 3 3 7.02944 3 12H5C5 8.13401 8.13401 5 12 5V3ZM12 8C12.0525 8 12.1193 8.00987 12.1901 8.03901C12.2607 8.06806 12.3136 8.10736 12.3485 8.14165L10.9468 9.56828C11.23 9.8465 11.5982 10 12 10V8ZM12.3546 8.14777C12.3894 8.18252 12.4298 8.23577 12.4598 8.30758C12.4898 8.37964 12.5 8.44784 12.5 8.50127H10.5C10.5 8.90772 10.6573 9.27894 10.9406 9.56218L12.3546 8.14777ZM12.5 8.50127C12.5 8.55212 12.4904 8.62015 12.4598 8.69369C12.429 8.7674 12.3867 8.82333 12.3485 8.86092L10.9468 7.43427C10.6552 7.72072 10.5 8.09639 10.5 8.50127H12.5ZM12.3546 8.85478C12.3205 8.8889 12.2677 8.92918 12.1958 8.95927C12.1236 8.98951 12.0547 9 12 9V7C11.5926 7 11.2225 7.1586 10.9406 7.44039L12.3546 8.85478ZM12 9C11.9477 9 11.879 8.9901 11.8054 8.95927C11.7317 8.92843 11.6764 8.88638 11.6396 8.84901L13.0651 7.44616C12.7802 7.15668 12.406 7 12 7V9ZM11.6515 8.8609C11.6133 8.82331 11.571 8.7674 11.5402 8.69369C11.5096 8.62015 11.5 8.55212 11.5 8.50127H13.5C13.5 8.09639 13.3448 7.72072 13.0532 7.43427L11.6515 8.8609ZM11.5 8.50127C11.5 8.44784 11.5102 8.37964 11.5402 8.30758C11.5702 8.23577 11.6106 8.18252 11.6454 8.14777L13.059 9.56256C13.3423 9.27932 13.5 8.90772 13.5 8.50127H11.5ZM11.6454 8.14777C11.683 8.11022 11.7387 8.06879 11.8111 8.03901C11.8832 8.0093 11.9499 8 12 8V10C12.4003 10 12.7727 9.84841 13.059 9.56256L11.6454 8.14777Z" fill="#5CDFE5"/>
</g>
</svg>
