<svg width="18" height="18" viewBox="0 0 18 18" fill="none" xmlns="http://www.w3.org/2000/svg">
<path d="M12.2 1H5.8C4.11984 1 3.27976 1 2.63803 1.32698C2.07354 1.6146 1.6146 2.07354 1.32698 2.63803C1 3.27976 1 4.11984 1 5.8V9.1994C1 10.8796 1 11.7197 1.32698 12.3614C1.6146 12.9259 2.07354 13.3848 2.63803 13.6725C3.27976 13.9994 4.11984 13.9994 5.8 13.9994H6.42858L9 17L11.5714 13.9994H12.2C13.8802 13.9994 14.7202 13.9994 15.362 13.6725C15.9265 13.3848 16.3854 12.9259 16.673 12.3614C17 11.7197 17 10.8796 17 9.1994V5.8C17 4.11984 17 3.27976 16.673 2.63803C16.3854 2.07354 15.9265 1.6146 15.362 1.32698C14.7202 1 13.8802 1 12.2 1Z" stroke="#5CDFE5" stroke-width="2" stroke-linecap="round" stroke-linejoin="round"/>
</svg>
