<svg width="24" height="24" viewBox="0 0 24 24" fill="none" stroke="black" xmlns="http://www.w3.org/2000/svg">
<path d="M13.8058 17.4097L12.5717 19.6478C12.5124 19.7552 12.4286 19.8441 12.3285 19.9058C12.2283 19.9676 12.1151 20 12 20C11.8849 20 11.7717 19.9676 11.6715 19.9058C11.5714 19.8441 11.4876 19.7552 11.4283 19.6478L10.1942 17.4097C10.135 17.3022 10.0512 17.2133 9.95101 17.1516C9.85083 17.0899 9.73766 17.0575 9.62254 17.0575H4.66667C4.48986 17.0575 4.32029 16.981 4.19526 16.845C4.07024 16.7089 4 16.5244 4 16.332V4.72542C4 4.53302 4.07024 4.34851 4.19526 4.21247C4.32029 4.07643 4.48986 4 4.66667 4H19.3333C19.5101 4 19.6797 4.07643 19.8047 4.21247C19.9298 4.34851 20 4.53302 20 4.72542V16.3321C20 16.5245 19.9298 16.709 19.8047 16.845C19.6797 16.9811 19.5101 17.0575 19.3333 17.0575L14.3775 17.0575C14.2623 17.0575 14.1492 17.0899 14.049 17.1516C13.9488 17.2133 13.865 17.3022 13.8058 17.4097Z"  stroke-width="2" stroke-linecap="round" stroke-linejoin="round"/>
</svg>
