<svg width="24" height="24" viewBox="0 0 24 24" fill="none" xmlns="http://www.w3.org/2000/svg">
<mask id="path-1-inside-1_6_202" fill="white">
<path d="M12 2.99994L12.6126 2.20952C12.252 1.93008 11.748 1.93008 11.3874 2.20952L12 2.99994ZM14.5 18.9999H13.5C13.5 19.5522 13.9477 19.9999 14.5 19.9999V18.9999ZM9.5 18.9999V19.9999C10.0523 19.9999 10.5 19.5522 10.5 18.9999H9.5ZM5 16.9999V10.1803H3V16.9999H5ZM5.38743 9.38984L12.6126 3.79035L11.3874 2.20952L4.16228 7.80901L5.38743 9.38984ZM11.3874 3.79035L18.6126 9.38984L19.8377 7.80901L12.6126 2.20952L11.3874 3.79035ZM19 10.1803V16.9999H21V10.1803H19ZM18 17.9999H14.5V19.9999H18V17.9999ZM19 16.9999C19 17.4996 18.9979 17.7738 18.9723 17.964C18.9506 18.1254 18.9297 18.0703 19 17.9999L20.4142 19.4142C20.7774 19.0509 20.903 18.6137 20.9545 18.2305C21.0021 17.876 21 17.4431 21 16.9999H19ZM18 19.9999C18.4431 19.9999 18.8761 20.0021 19.2305 19.9544C19.6137 19.9029 20.051 19.7774 20.4142 19.4142L19 17.9999C19.0703 17.9296 19.1254 17.9505 18.964 17.9722C18.7738 17.9978 18.4997 17.9999 18 17.9999V19.9999ZM18.6126 9.38984C18.8162 9.54768 18.9185 9.62802 18.9871 9.69143C19.0415 9.74178 19.0217 9.73444 19 9.69009L20.7959 8.80984C20.5678 8.34452 20.1406 8.04373 19.8377 7.80901L18.6126 9.38984ZM21 10.1803C21 9.79708 21.0239 9.27516 20.7959 8.80984L19 9.69009C18.9783 9.64575 18.9846 9.62563 18.991 9.69952C18.9991 9.79256 19 9.92259 19 10.1803H21ZM5 10.1803C5 9.9226 5.00087 9.79256 5.00898 9.69952C5.01542 9.62563 5.02174 9.64575 5 9.6901L3.20413 8.80984C2.97605 9.27516 3 9.79708 3 10.1803H5ZM4.16228 7.80901C3.85941 8.04374 3.43221 8.34452 3.20413 8.80984L5 9.6901C4.97827 9.73444 4.95849 9.74178 5.01295 9.69143C5.08152 9.62802 5.18377 9.54768 5.38743 9.38984L4.16228 7.80901ZM3 16.9999C3 17.4431 2.99788 17.876 3.04553 18.2305C3.09705 18.6137 3.22257 19.0509 3.58579 19.4142L5 17.9999C5.07032 18.0703 5.0494 18.1254 5.02769 17.964C5.00212 17.7738 5 17.4996 5 16.9999H3ZM6 17.9999C5.50033 17.9999 5.22617 17.9978 5.03598 17.9722C4.87455 17.9505 4.92968 17.9296 5 17.9999L3.58579 19.4142C3.949 19.7774 4.38628 19.9029 4.76948 19.9544C5.12392 20.0021 5.55687 19.9999 6 19.9999V17.9999ZM12 12.4999C12.3604 12.4999 12.7508 12.5943 13.0249 12.7999C13.2506 12.9692 13.5 13.2855 13.5 14L15.5 13.9999C15.4999 12.7144 14.9992 11.7807 14.225 11.1999C13.4991 10.6556 12.6396 10.4999 12 10.4999V12.4999ZM13.5 14V18.9999H15.5V13.9999L13.5 14ZM12 10.4999C11.3604 10.4999 10.5008 10.6556 9.775 11.1999C9.00071 11.7807 8.5 12.7144 8.5 13.9999H10.5C10.5 13.2855 10.7493 12.9692 10.975 12.7999C11.2492 12.5943 11.6396 12.4999 12 12.4999V10.4999ZM8.5 13.9999V18.9999H10.5V13.9999H8.5ZM9.5 17.9999H6V19.9999H9.5V17.9999Z"/>
</mask>
<path d="M12 2.99994L12.6126 2.20952C12.252 1.93008 11.748 1.93008 11.3874 2.20952L12 2.99994ZM14.5 18.9999H13.5C13.5 19.5522 13.9477 19.9999 14.5 19.9999V18.9999ZM9.5 18.9999V19.9999C10.0523 19.9999 10.5 19.5522 10.5 18.9999H9.5ZM5 16.9999V10.1803H3V16.9999H5ZM5.38743 9.38984L12.6126 3.79035L11.3874 2.20952L4.16228 7.80901L5.38743 9.38984ZM11.3874 3.79035L18.6126 9.38984L19.8377 7.80901L12.6126 2.20952L11.3874 3.79035ZM19 10.1803V16.9999H21V10.1803H19ZM18 17.9999H14.5V19.9999H18V17.9999ZM19 16.9999C19 17.4996 18.9979 17.7738 18.9723 17.964C18.9506 18.1254 18.9297 18.0703 19 17.9999L20.4142 19.4142C20.7774 19.0509 20.903 18.6137 20.9545 18.2305C21.0021 17.876 21 17.4431 21 16.9999H19ZM18 19.9999C18.4431 19.9999 18.8761 20.0021 19.2305 19.9544C19.6137 19.9029 20.051 19.7774 20.4142 19.4142L19 17.9999C19.0703 17.9296 19.1254 17.9505 18.964 17.9722C18.7738 17.9978 18.4997 17.9999 18 17.9999V19.9999ZM18.6126 9.38984C18.8162 9.54768 18.9185 9.62802 18.9871 9.69143C19.0415 9.74178 19.0217 9.73444 19 9.69009L20.7959 8.80984C20.5678 8.34452 20.1406 8.04373 19.8377 7.80901L18.6126 9.38984ZM21 10.1803C21 9.79708 21.0239 9.27516 20.7959 8.80984L19 9.69009C18.9783 9.64575 18.9846 9.62563 18.991 9.69952C18.9991 9.79256 19 9.92259 19 10.1803H21ZM5 10.1803C5 9.9226 5.00087 9.79256 5.00898 9.69952C5.01542 9.62563 5.02174 9.64575 5 9.6901L3.20413 8.80984C2.97605 9.27516 3 9.79708 3 10.1803H5ZM4.16228 7.80901C3.85941 8.04374 3.43221 8.34452 3.20413 8.80984L5 9.6901C4.97827 9.73444 4.95849 9.74178 5.01295 9.69143C5.08152 9.62802 5.18377 9.54768 5.38743 9.38984L4.16228 7.80901ZM3 16.9999C3 17.4431 2.99788 17.876 3.04553 18.2305C3.09705 18.6137 3.22257 19.0509 3.58579 19.4142L5 17.9999C5.07032 18.0703 5.0494 18.1254 5.02769 17.964C5.00212 17.7738 5 17.4996 5 16.9999H3ZM6 17.9999C5.50033 17.9999 5.22617 17.9978 5.03598 17.9722C4.87455 17.9505 4.92968 17.9296 5 17.9999L3.58579 19.4142C3.949 19.7774 4.38628 19.9029 4.76948 19.9544C5.12392 20.0021 5.55687 19.9999 6 19.9999V17.9999ZM12 12.4999C12.3604 12.4999 12.7508 12.5943 13.0249 12.7999C13.2506 12.9692 13.5 13.2855 13.5 14L15.5 13.9999C15.4999 12.7144 14.9992 11.7807 14.225 11.1999C13.4991 10.6556 12.6396 10.4999 12 10.4999V12.4999ZM13.5 14V18.9999H15.5V13.9999L13.5 14ZM12 10.4999C11.3604 10.4999 10.5008 10.6556 9.775 11.1999C9.00071 11.7807 8.5 12.7144 8.5 13.9999H10.5C10.5 13.2855 10.7493 12.9692 10.975 12.7999C11.2492 12.5943 11.6396 12.4999 12 12.4999V10.4999ZM8.5 13.9999V18.9999H10.5V13.9999H8.5ZM9.5 17.9999H6V19.9999H9.5V17.9999Z" fill="#5CDFE5"/>
<path d="M18.6126 9.38984L18.2174 9.08358L19.0078 9.69612L18.6126 9.38984ZM19 9.69009L18.7799 9.24112L19.2201 10.1391L19 9.69009ZM15.5 13.9999L15.5 14.4999L15.5 13.4999V13.9999ZM5.17006 8.29314L4.55748 7.50272L3.76707 8.1153L4.37965 8.90572L5.17006 8.29314ZM18.8299 8.29317L18.2174 9.08358L19.0078 9.6961L19.6203 8.90569L18.8299 8.29317ZM19.6778 8.801L18.7799 9.24112L19.2201 10.1391L20.118 9.69894L19.6778 8.801ZM14.5 14.4999H15.5V13.4999H14.5V14.4999ZM5 9.6803H3V10.6803H5V9.6803ZM3 17.4999H5V16.4999H3V17.4999ZM3.76707 8.1153L4.99222 9.69613L5.78263 9.08355L4.55748 7.50272L3.76707 8.1153ZM19.0078 9.69612L20.2329 8.11529L19.4425 7.50273L18.2174 9.08356L19.0078 9.69612ZM19 17.4999H21V16.4999H19V17.4999ZM21 9.6803H19V10.6803H21V9.6803ZM18.5 19.9999V17.9999H17.5V19.9999H18.5ZM18.6464 18.3534L20.0606 19.7677L20.7678 19.0607L19.3536 17.6464L18.6464 18.3534ZM19.2201 10.1391L21.016 9.25881L20.5758 8.36087L18.7799 9.24112L19.2201 10.1391ZM5.22006 9.24113L3.42419 8.36087L2.98406 9.25881L4.77993 10.1391L5.22006 9.24113ZM3.93935 19.7677L5.35356 18.3534L4.64643 17.6464L3.23222 19.0607L3.93935 19.7677ZM6.5 19.9999V17.9999H5.5V19.9999H6.5ZM13.5 14.5L15.5 14.4999L15.5 13.4999L13.5 13.5L13.5 14.5ZM11.5 10.4999V12.4999H12.5V10.4999H11.5ZM8.5 14.4999H10.5V13.4999H8.5V14.4999ZM4.16228 7.80901L3.5497 7.0186L3.5497 7.0186L4.16228 7.80901ZM12 2.99994L11.2096 3.61253L12 4.63236L12.7904 3.61253L12 2.99994ZM12.6126 2.20952L13.2252 1.41911L13.2251 1.41908L12.6126 2.20952ZM11.3874 2.20952L10.7749 1.41908L10.7748 1.41911L11.3874 2.20952ZM18.6126 9.38984L19.2253 8.59952L19.2252 8.59942L18.6126 9.38984ZM14.5 18.9999H15.5V17.9999H14.5V18.9999ZM19 9.69009L19.8982 9.25059L19.8982 9.25051L19 9.69009ZM15.5 13.9999H16.5V13.9998L15.5 13.9999ZM9.5 18.9999V17.9999H8.5V18.9999H9.5ZM5.38743 9.38984L4.77486 8.59942L4.77485 8.59943L5.38743 9.38984ZM12.6126 3.79035L13.2252 4.58076L14.0156 3.96818L13.403 3.17776L12.6126 3.79035ZM11.3874 3.79035L10.597 3.17776L9.98439 3.96818L10.7748 4.58077L11.3874 3.79035ZM19.8377 7.80901L19.2251 8.59942L19.2252 8.59946L19.8377 7.80901ZM14.5 17.9999V16.9999H13.5V17.9999H14.5ZM18.9723 17.964L17.9812 17.8306L17.9812 17.8308L18.9723 17.964ZM19 17.9999L18.2929 17.2928L18.2924 17.2933L19 17.9999ZM20.4142 19.4142L21.1213 20.1213L21.1214 20.1212L20.4142 19.4142ZM20.9545 18.2305L21.9456 18.3637L21.9456 18.3636L20.9545 18.2305ZM19.2305 19.9544L19.0973 18.9633L19.0971 18.9633L19.2305 19.9544ZM18.964 17.9722L18.8307 16.9811L18.8306 16.9811L18.964 17.9722ZM18.9871 9.69143L19.6664 8.95753L19.6659 8.95709L18.9871 9.69143ZM20.7959 8.80984L21.6939 8.36983L21.6938 8.36968L20.7959 8.80984ZM18.991 9.69952L17.9947 9.78581L17.9948 9.78625L18.991 9.69952ZM5.00898 9.69952L6.0052 9.78636L6.0052 9.78635L5.00898 9.69952ZM5 9.6901L4.10207 9.24994L4.10203 9.25003L5 9.6901ZM5.01295 9.69143L5.6918 10.4257L5.69189 10.4256L5.01295 9.69143ZM3.04553 18.2305L2.05444 18.3637L2.05444 18.3637L3.04553 18.2305ZM3.58579 19.4142L2.8786 20.1212L2.87869 20.1213L3.58579 19.4142ZM5 17.9999L5.70751 17.2932L5.707 17.2927L5 17.9999ZM5.02769 17.964L4.0366 18.0972L4.03661 18.0973L5.02769 17.964ZM5.03598 17.9722L5.16938 16.9811L5.1692 16.9811L5.03598 17.9722ZM4.76948 19.9544L4.90285 18.9633L4.90267 18.9633L4.76948 19.9544ZM13.0249 12.7999L13.625 11.9999L13.6249 11.9999L13.0249 12.7999ZM14.225 11.1999L14.8251 10.4L14.8249 10.3998L14.225 11.1999ZM15.5 18.9999V19.9999H16.5V18.9999H15.5ZM9.775 11.1999L9.17503 10.3999L9.17494 10.3999L9.775 11.1999ZM10.975 12.7999L10.3751 11.9998L10.3749 11.9999L10.975 12.7999ZM8.5 18.9999H7.5V19.9999H8.5V18.9999ZM9.5 17.9999H10.5V16.9999H9.5V17.9999ZM12.7904 3.61253L13.403 2.82211L11.8222 1.59693L11.2096 2.38735L12.7904 3.61253ZM13.2251 1.41908C12.504 0.860226 11.496 0.860226 10.7749 1.41908L11.9999 2.99996H12.0001L13.2251 1.41908ZM10.597 2.82211L11.2096 3.61253L12.7904 2.38735L12.1778 1.59693L10.597 2.82211ZM14.5 17.9999H13.5V19.9999H14.5V17.9999ZM12.5 18.9999C12.5 20.1045 13.3954 20.9999 14.5 20.9999V18.9999H12.5ZM15.5 19.9999V18.9999H13.5V19.9999H15.5ZM8.5 18.9999V19.9999H10.5V18.9999H8.5ZM9.5 20.9999C10.6046 20.9999 11.5 20.1045 11.5 18.9999H9.5V20.9999ZM10.5 17.9999H9.5V19.9999H10.5V17.9999ZM6 16.9999V10.1803H4V16.9999H6ZM2 10.1803V16.9999H4V10.1803H2ZM6 10.1803L13.2252 4.58076L12 2.99993L4.77486 8.59942L6 10.1803ZM13.403 3.17776L12.1778 1.59693L10.597 2.82211L11.8222 4.40294L13.403 3.17776ZM10.7748 1.41911L3.5497 7.0186L4.77485 8.59942L12 2.99993L10.7748 1.41911ZM10.7748 4.58077L18 10.1803L19.2252 8.59942L12 2.99993L10.7748 4.58077ZM20.4503 7.0186L13.2252 1.41911L12 2.99993L19.2251 8.59942L20.4503 7.0186ZM11.8222 1.59693L10.597 3.17776L12.1778 4.40294L13.403 2.82211L11.8222 1.59693ZM18 10.1803V16.9999H20V10.1803H18ZM22 16.9999V10.1803H20V16.9999H22ZM18 16.9999H14.5V18.9999H18V16.9999ZM13.5 17.9999V19.9999H15.5V17.9999H13.5ZM14.5 20.9999H18V18.9999H14.5V20.9999ZM18 16.9999C18 17.5305 17.9957 17.7232 17.9812 17.8306L19.9634 18.0974C20.0001 17.8244 20 17.4687 20 16.9999H18ZM17.9812 17.8308C17.9795 17.8432 17.9798 17.8367 17.9848 17.816C17.9873 17.8056 17.9912 17.7904 17.997 17.7713C17.9998 17.7622 18.0037 17.7501 18.0089 17.7355C18.0093 17.7343 18.0165 17.7137 18.0269 17.6883C18.0288 17.6836 18.0325 17.6748 18.0373 17.6639C18.039 17.6601 18.0531 17.6278 18.0744 17.5889C18.09 17.5615 18.148 17.4739 18.1938 17.4165C18.4244 17.2193 19.4355 17.1939 19.904 17.7643C19.9435 17.9421 19.9455 18.1789 19.938 18.2334C19.9334 18.2587 19.9249 18.2986 19.9213 18.3132C19.915 18.3385 19.909 18.3579 19.9072 18.3637C19.9045 18.3724 19.9022 18.3793 19.9008 18.3835C19.898 18.3921 19.8956 18.3989 19.8943 18.4027C19.8543 18.5156 19.7947 18.6193 19.7076 18.7065L18.2924 17.2933C18.135 17.4509 18.0507 17.6173 18.009 17.7351C18.0076 17.7389 18.0052 17.7458 18.0024 17.7544C18.001 17.7586 17.9987 17.7656 17.996 17.7743C17.9942 17.7801 17.9882 17.7996 17.9819 17.8248C17.9783 17.8395 17.9697 17.8794 17.9652 17.9047C17.9577 17.9591 17.9597 18.1959 17.9992 18.3737C18.4677 18.9441 19.4788 18.9187 19.7094 18.7216C19.7552 18.6641 19.8132 18.5766 19.8288 18.5491C19.8501 18.5102 19.8642 18.478 19.8659 18.4741C19.8707 18.4632 19.8744 18.4544 19.8763 18.4497C19.8869 18.4241 19.8942 18.4031 19.8948 18.4012C19.9004 18.3854 19.9051 18.3709 19.9089 18.3584C19.9169 18.3325 19.924 18.3061 19.9304 18.2792C19.9431 18.2256 19.9542 18.1655 19.9634 18.0972L17.9812 17.8308ZM21.1214 20.1212C21.7016 19.5408 21.8793 18.8571 21.9456 18.3637L19.9634 18.0973C19.9267 18.3703 19.8532 18.561 19.707 18.7072L21.1214 20.1212ZM21.9456 18.3636C22.0042 17.9275 22 17.4168 22 16.9999H20C20 17.4694 20 17.8245 19.9634 18.0974L21.9456 18.3636ZM18 20.9999C18.4165 20.9999 18.9277 21.0042 19.3639 20.9455L19.0971 18.9633C18.8245 19 18.4697 18.9999 18 18.9999V20.9999ZM19.3637 20.9455C19.8568 20.8792 20.5408 20.7018 21.1213 20.1213L19.7071 18.7071C19.5612 18.853 19.3706 18.9266 19.0973 18.9633L19.3637 20.9455ZM19.7071 18.707C19.6195 18.7946 19.5159 18.8539 19.4043 18.8936C19.4006 18.8949 19.3941 18.8972 19.3859 18.9C19.3819 18.9013 19.3752 18.9035 19.3669 18.9061C19.3615 18.9078 19.3427 18.9137 19.3183 18.9199C19.304 18.9235 19.2647 18.9322 19.2397 18.9368C19.1842 18.9449 18.9273 18.9414 18.7319 18.893C18.1562 18.3599 18.2683 17.3525 18.4466 17.1688C18.4977 17.1308 18.5754 17.0818 18.6 17.0683C18.6354 17.0495 18.6645 17.037 18.6684 17.0353C18.6785 17.0309 18.6866 17.0275 18.691 17.0257C18.7151 17.0159 18.7344 17.0092 18.7361 17.0086C18.7504 17.0035 18.7624 16.9997 18.7715 16.9969C18.7905 16.9911 18.8056 16.9872 18.816 16.9847C18.8367 16.9797 18.8432 16.9794 18.8307 16.9811L19.0972 18.9633C19.1655 18.9541 19.2256 18.9431 19.2792 18.9303C19.306 18.9239 19.3324 18.9168 19.3582 18.9089C19.3707 18.9051 19.3851 18.9004 19.4007 18.8949C19.403 18.8941 19.4227 18.8872 19.447 18.8773C19.4514 18.8755 19.4595 18.8722 19.4697 18.8677C19.4735 18.8661 19.5026 18.8535 19.5381 18.8347C19.5627 18.8212 19.6403 18.7722 19.6915 18.7342C19.8698 18.5505 19.9818 17.5431 19.4061 17.01C19.2108 16.9616 18.9539 16.9582 18.8984 16.9662C18.8733 16.9708 18.834 16.9795 18.8197 16.9831C18.7953 16.9894 18.7765 16.9952 18.7711 16.9969C18.7628 16.9995 18.7561 17.0017 18.752 17.0031C18.7438 17.0058 18.7372 17.0081 18.7335 17.0095C18.6171 17.0509 18.4507 17.1349 18.2929 17.2928L19.7071 18.707ZM18.8306 16.9811C18.7232 16.9956 18.5306 16.9999 18 16.9999V18.9999C18.4688 18.9999 18.8244 19 19.0974 18.9633L18.8306 16.9811ZM17.9999 10.1802C18.2187 10.3498 18.2793 10.3989 18.3083 10.4258L19.6659 8.95709C19.5577 8.85709 19.4137 8.74555 19.2253 8.59952L17.9999 10.1802ZM18.3078 10.4253C18.3082 10.4257 18.3026 10.4205 18.2927 10.4101C18.2876 10.4048 18.2816 10.3983 18.2747 10.3907C18.2712 10.3867 18.2681 10.3832 18.2657 10.3804C18.258 10.3715 18.2692 10.3846 18.2762 10.3924C18.278 10.3943 18.2848 10.402 18.2937 10.4115C18.2989 10.417 18.3132 10.4316 18.3224 10.4407C18.3415 10.4589 18.4246 10.5282 18.4923 10.5744C19.2514 10.6997 20.0203 9.78704 19.9318 9.31109C19.9046 9.25591 19.8621 9.18368 19.8498 9.16513C19.8337 9.14139 19.8197 9.12305 19.8193 9.12251C19.8128 9.11396 19.8074 9.10715 19.8073 9.10708C19.806 9.10537 19.8049 9.10403 19.8047 9.10382C19.8044 9.10336 19.8079 9.10781 19.8121 9.11315C19.816 9.11818 19.82 9.12351 19.8241 9.12911C19.8324 9.14027 19.8407 9.1521 19.849 9.1646C19.8653 9.1893 19.8822 9.2179 19.8982 9.25059L18.1018 10.1296C18.1286 10.1845 18.1562 10.2306 18.1806 10.2676C18.1929 10.2862 18.2047 10.3029 18.2155 10.3174C18.2209 10.3248 18.2259 10.3314 18.2306 10.3375C18.2355 10.3438 18.2396 10.3489 18.2394 10.3487C18.2393 10.3485 18.2382 10.3472 18.2369 10.3455C18.2369 10.3455 18.2315 10.3387 18.225 10.3302C18.2246 10.3296 18.2106 10.3113 18.1945 10.2876C18.1822 10.269 18.1397 10.1968 18.1124 10.1416C18.024 9.66565 18.7929 8.75299 19.552 8.87825C19.6197 8.92449 19.7028 8.99377 19.7219 9.01194C19.7311 9.02105 19.7453 9.03571 19.7505 9.04118C19.7595 9.05072 19.7663 9.05835 19.768 9.06028C19.775 9.06806 19.7861 9.08093 19.7782 9.07187C19.7754 9.06861 19.7716 9.06421 19.7669 9.05897C19.7578 9.04882 19.7481 9.03827 19.7376 9.02728C19.7167 9.00548 19.6932 8.98235 19.6664 8.95753L18.3078 10.4253ZM21.6938 8.36968C21.3416 7.65123 20.6892 7.20376 20.4502 7.01856L19.2252 8.59946C19.403 8.73725 19.5316 8.83105 19.6601 8.95175C19.7802 9.06459 19.8546 9.16152 19.898 9.25L21.6938 8.36968ZM22 10.1803C22 9.8779 22.0459 9.08822 21.6939 8.36983L19.8979 9.24984C19.9413 9.33835 19.9723 9.45656 19.9879 9.62065C20.0047 9.79616 20 9.95535 20 10.1803H22ZM19.8982 9.25051C19.9141 9.28304 19.9262 9.31377 19.9356 9.34152C19.9404 9.35559 19.9446 9.36918 19.9482 9.38217C19.9522 9.39617 19.9554 9.40918 19.9545 9.40562C19.9542 9.40453 19.9534 9.40121 19.9523 9.39697C19.9521 9.39625 19.9482 9.38127 19.9427 9.3628C19.9425 9.36202 19.9309 9.32197 19.9115 9.27417C19.8953 9.23662 19.8199 9.10006 19.751 9.00767C19.2653 8.69048 18.2511 8.97107 18.0107 9.42504C17.9927 9.52633 17.9851 9.66711 17.9864 9.70526C17.9877 9.72489 17.9906 9.75629 17.9919 9.76807C17.9944 9.78892 17.997 9.80512 17.9977 9.80972C18.0011 9.83085 18.0063 9.85653 18.0035 9.84196C18.0031 9.84034 18.0024 9.83638 18.0015 9.83142C17.9997 9.82197 17.9984 9.81361 17.9973 9.80648C17.9953 9.79256 17.9947 9.78519 17.9947 9.78581L19.9873 9.61323C19.9841 9.57691 19.9803 9.54434 19.976 9.5148C19.9738 9.49986 19.9715 9.48607 19.9692 9.47333C19.9679 9.46672 19.967 9.46163 19.9665 9.45939C19.9636 9.44451 19.9688 9.47001 19.9722 9.49106C19.9729 9.49566 19.9755 9.51185 19.978 9.5327C19.9793 9.54447 19.9822 9.57587 19.9834 9.5955C19.9848 9.63365 19.9772 9.77443 19.9592 9.87572C19.7188 10.3297 18.7046 10.6103 18.2188 10.2931C18.15 10.2007 18.0746 10.0641 18.0584 10.0266C18.039 9.97879 18.0274 9.93875 18.0272 9.93797C18.0216 9.91952 18.0178 9.90456 18.0176 9.90386C18.0165 9.89965 18.0157 9.89636 18.0154 9.89532C18.0147 9.89242 18.0185 9.90795 18.0236 9.92604C18.0284 9.94312 18.0343 9.96238 18.0414 9.98341C18.0556 10.0251 18.075 10.075 18.1018 10.1297L19.8982 9.25051ZM17.9948 9.78625C17.9982 9.8256 18 9.90385 18 10.1803H20C20 9.94133 20 9.75952 19.9872 9.61279L17.9948 9.78625ZM6 10.1803C6 9.90362 6.00178 9.82559 6.0052 9.78636L4.01275 9.61268C3.99995 9.75953 4 9.94158 4 10.1803H6ZM6.0052 9.78635C6.00525 9.78577 6.00462 9.79326 6.00253 9.80733C6.00146 9.81452 6.00007 9.82307 5.99828 9.83284C5.99734 9.83796 5.99651 9.84221 5.99599 9.84484C5.99345 9.85766 5.99769 9.83671 6.00042 9.821C6.00104 9.81741 6.00327 9.80451 6.00558 9.7879C6.00684 9.77849 6.00976 9.75334 6.01127 9.73759C6.01349 9.70675 6.01327 9.59031 6.00448 9.50519C5.78643 9.01397 4.71087 8.69777 4.19874 9.07281C4.14636 9.15508 4.08913 9.27274 4.07704 9.30384C4.06261 9.3429 4.05364 9.37536 4.05352 9.37577C4.04932 9.39048 4.04631 9.40242 4.04621 9.4028C4.04539 9.40602 4.04476 9.40854 4.04459 9.40923C4.04357 9.41334 4.04525 9.40653 4.04668 9.401C4.04821 9.3951 4.0499 9.38881 4.05177 9.38219C4.05549 9.36903 4.0597 9.35533 4.06449 9.3412C4.07395 9.31332 4.08611 9.28252 4.10207 9.24994L5.89792 10.1303C5.92476 10.0755 5.94428 10.0256 5.95847 9.98374C5.96562 9.96264 5.97154 9.94328 5.97641 9.92602C5.97886 9.91736 5.98099 9.90941 5.98284 9.90229C5.98459 9.89553 5.98646 9.88793 5.98552 9.89171C5.98536 9.89235 5.98474 9.89485 5.98392 9.89804C5.98384 9.89839 5.98083 9.91031 5.97663 9.925C5.97651 9.92541 5.96754 9.95787 5.95311 9.99692C5.94103 10.028 5.8838 10.1457 5.83142 10.2279C5.31929 10.603 4.24373 10.2868 4.02567 9.79557C4.01688 9.71045 4.01667 9.59401 4.01889 9.56318C4.02039 9.54742 4.02332 9.52227 4.02458 9.51287C4.02688 9.49627 4.02912 9.48336 4.02974 9.47979C4.03245 9.46414 4.03665 9.44338 4.03405 9.45652C4.03341 9.45977 4.03236 9.46514 4.03112 9.47191C4.02872 9.48497 4.02639 9.49894 4.02417 9.51394C4.01976 9.54364 4.01592 9.57632 4.01275 9.61269L6.0052 9.78635ZM2.30619 8.36971C1.95403 9.08818 2 9.87801 2 10.1803H4C4 9.95528 3.99532 9.79615 4.01203 9.62064C4.02765 9.45658 4.0587 9.33843 4.10206 9.24997L2.30619 8.36971ZM3.5497 7.0186C3.3108 7.20375 2.65835 7.65125 2.30619 8.36971L4.10206 9.24997C4.14542 9.16151 4.21979 9.06459 4.33989 8.95174C4.46838 8.83102 4.59701 8.73725 4.77486 8.59942L3.5497 7.0186ZM4.10203 9.25003C4.11801 9.21744 4.13491 9.18895 4.15115 9.1644C4.15937 9.15196 4.16762 9.14026 4.17573 9.12927C4.18465 9.11718 4.19246 9.10733 4.19235 9.10748C4.19187 9.10809 4.19018 9.11023 4.18805 9.11298C4.18776 9.11334 4.17992 9.12338 4.17058 9.13615C4.1702 9.13667 4.14965 9.16429 4.12724 9.20054C4.10995 9.2296 4.05264 9.34687 4.0203 9.43807C4.02703 10.0361 4.899 10.7232 5.44903 10.6084C5.528 10.5614 5.62764 10.4865 5.65225 10.4647C5.66451 10.4533 5.68369 10.4347 5.69074 10.4276C5.7031 10.4151 5.71241 10.4049 5.71498 10.4021C5.72642 10.3896 5.74096 10.3728 5.73214 10.3829C5.73049 10.3848 5.72768 10.388 5.72422 10.3919C5.71763 10.3992 5.71175 10.4055 5.70672 10.4108C5.69689 10.421 5.69137 10.4261 5.6918 10.4257L4.33409 8.95716C4.30729 8.98194 4.28382 9.00498 4.26306 9.02663C4.25257 9.03757 4.24298 9.04794 4.23416 9.0578C4.22958 9.06291 4.22601 9.06699 4.22395 9.06936C4.21492 9.07972 4.22933 9.06301 4.24073 9.05058C4.24329 9.04778 4.2526 9.03763 4.26496 9.02507C4.272 9.01798 4.29119 8.99937 4.30344 8.98798C4.32805 8.96624 4.42769 8.89129 4.50666 8.84431C5.05669 8.72946 5.92866 9.41659 5.93539 10.0146C5.90305 10.1058 5.84574 10.2231 5.82845 10.2522C5.80604 10.2884 5.78549 10.316 5.78512 10.3165C5.77578 10.3293 5.76795 10.3393 5.76769 10.3397C5.76557 10.3424 5.76391 10.3445 5.76345 10.3451C5.76066 10.3486 5.76575 10.3422 5.76987 10.3368C5.77435 10.3311 5.7793 10.3245 5.78464 10.3173C5.79528 10.3029 5.80696 10.2864 5.81924 10.2678C5.8436 10.231 5.87112 10.1849 5.89796 10.1302L4.10203 9.25003ZM5.69189 10.4256C5.72078 10.3989 5.78131 10.3497 6.00001 10.1802L4.77485 8.59943C4.58623 8.74561 4.44226 8.85713 4.334 8.95724L5.69189 10.4256ZM2 16.9999C2 17.4167 1.99581 17.9276 2.05444 18.3637L4.03661 18.0973C3.99994 17.8244 4 17.4695 4 16.9999H2ZM2.05444 18.3637C2.12075 18.8569 2.29826 19.5408 2.8786 20.1212L4.29297 18.7072C4.14687 18.561 4.07334 18.3705 4.03661 18.0972L2.05444 18.3637ZM4.29249 18.7066C4.20561 18.6196 4.1456 18.5158 4.10526 18.4014C4.10387 18.3975 4.10139 18.3904 4.09844 18.3814C4.09698 18.377 4.0946 18.3696 4.09181 18.3605C4.08995 18.3544 4.08368 18.3337 4.07712 18.307C4.07344 18.2914 4.06473 18.249 4.06018 18.2221C4.05294 18.1642 4.06027 17.9154 4.10749 17.7304C4.57489 17.1882 5.56351 17.2119 5.79537 17.4042C5.84379 17.4629 5.9051 17.5532 5.92165 17.5818C5.94434 17.6224 5.95922 17.6562 5.96104 17.6603C5.96618 17.6717 5.97004 17.681 5.97207 17.6858C5.98305 17.7123 5.99053 17.7338 5.99087 17.7348C5.9961 17.7496 6.00006 17.7619 6.00286 17.771C6.00875 17.7902 6.01269 17.8054 6.01517 17.8158C6.02012 17.8366 6.02043 17.8431 6.01876 17.8307L4.03661 18.0973C4.0458 18.1656 4.05686 18.2258 4.06965 18.2794C4.07604 18.3062 4.08317 18.3327 4.09115 18.3587C4.095 18.3712 4.09974 18.3859 4.10543 18.402C4.106 18.4036 4.11364 18.4255 4.12469 18.4521C4.12673 18.457 4.1306 18.4663 4.13574 18.4778C4.13757 18.4818 4.15245 18.5156 4.17514 18.5563C4.1917 18.5848 4.253 18.6751 4.30143 18.7339C4.53329 18.9261 5.52191 18.9498 5.98931 18.4077C6.03653 18.2226 6.04386 17.9738 6.03662 17.916C6.03207 17.889 6.02336 17.8466 6.01968 17.8311C6.01311 17.8043 6.00684 17.7837 6.00498 17.7775C6.00218 17.7684 5.99979 17.761 5.99833 17.7565C5.99536 17.7475 5.99286 17.7404 5.99144 17.7363C5.94941 17.6171 5.86471 17.4506 5.70751 17.2932L4.29249 18.7066ZM6.01877 17.8308C6.00432 17.7232 6 17.5304 6 16.9999H4C4 17.4688 3.99992 17.8244 4.0366 18.0972L6.01877 17.8308ZM6 16.9999C5.46942 16.9999 5.27677 16.9956 5.16938 16.9811L4.90258 18.9633C5.17557 19 5.53123 18.9999 6 18.9999V16.9999ZM5.1692 16.9811C5.15678 16.9794 5.16324 16.9797 5.18396 16.9847C5.19436 16.9872 5.2095 16.9911 5.22852 16.9969C5.23761 16.9997 5.24972 17.0036 5.26414 17.0087C5.26558 17.0092 5.28549 17.0161 5.31015 17.0262C5.31468 17.0281 5.32311 17.0315 5.33359 17.0362C5.33744 17.0378 5.36796 17.0511 5.40496 17.071C5.43086 17.0854 5.51306 17.1384 5.56709 17.1799C5.75494 17.3849 5.82657 18.3963 5.25075 18.899C5.06438 18.9426 4.8179 18.9451 4.76303 18.9373C4.73787 18.9327 4.69836 18.9241 4.68392 18.9205C4.65916 18.9142 4.6401 18.9083 4.63448 18.9065C4.62603 18.9039 4.61923 18.9017 4.61511 18.9003C4.60677 18.8975 4.60014 18.8952 4.59642 18.8939C4.48417 18.854 4.38046 18.7946 4.29299 18.7071L5.707 17.2927C5.54921 17.1349 5.38277 17.0508 5.26575 17.0092C5.26194 17.0079 5.25525 17.0055 5.24687 17.0027C5.24273 17.0013 5.23591 16.9991 5.22744 16.9965C5.22181 16.9947 5.20273 16.9888 5.17796 16.9825C5.16352 16.9789 5.124 16.9703 5.09885 16.9657C5.04397 16.9579 4.79749 16.9604 4.61111 17.004C4.03529 17.5067 4.10692 18.5181 4.29478 18.7231C4.34881 18.7646 4.43101 18.8176 4.45692 18.832C4.49392 18.8519 4.52445 18.8652 4.52831 18.8669C4.53881 18.8715 4.54725 18.875 4.5518 18.8768C4.57663 18.887 4.59694 18.8941 4.59904 18.8948C4.61477 18.9004 4.6292 18.905 4.6417 18.9089C4.66756 18.9168 4.69393 18.9239 4.72076 18.9303C4.77435 18.9431 4.83446 18.9541 4.90275 18.9633L5.1692 16.9811ZM2.87869 20.1213C3.45915 20.7018 4.14318 20.8792 4.63628 20.9455L4.90267 18.9633C4.62938 18.9266 4.43884 18.853 4.29288 18.7071L2.87869 20.1213ZM4.6361 20.9455C5.07235 21.0042 5.5835 20.9999 6 20.9999V18.9999C5.53023 18.9999 5.17549 19 4.90285 18.9633L4.6361 20.9455ZM12 13.4999C12.2195 13.4999 12.3758 13.5631 12.4249 13.5999L13.6249 11.9999C13.1258 11.6255 12.5013 11.4999 12 11.4999V13.4999ZM12.4248 13.5999C12.4312 13.6046 12.435 13.606 12.4448 13.6266C12.4582 13.6547 12.5 13.759 12.5 14H14.5C14.5 13.5265 14.4171 13.1154 14.2494 12.7644C14.0781 12.4059 13.8443 12.1645 13.625 11.9999L12.4248 13.5999ZM16.5 13.9998C16.4999 12.4296 15.874 11.1869 14.8251 10.4L13.6249 11.9998C14.1243 12.3745 14.4999 12.9992 14.5 14L16.5 13.9998ZM14.8249 10.3998C13.8729 9.686 12.7787 9.4999 12 9.4999V11.4999C12.5005 11.4999 13.1253 11.6252 13.6251 12L14.8249 10.3998ZM12.5 14V18.9999H14.5V14H12.5ZM13.5 19.9999H15.5V17.9999H13.5V19.9999ZM16.5 18.9999V13.9999H14.5V18.9999H16.5ZM12 9.4999C11.2214 9.4999 10.127 9.68598 9.17503 10.3999L10.375 11.9999C10.8746 11.6252 11.4994 11.4999 12 11.4999V9.4999ZM9.17494 10.3999C8.12587 11.1869 7.5 12.4296 7.5 13.9999H9.5C9.5 12.9992 9.87554 12.3745 10.3751 11.9999L9.17494 10.3999ZM11.5 13.9999C11.5 13.759 11.5418 13.6546 11.5552 13.6265C11.565 13.6059 11.5688 13.6046 11.5751 13.5999L10.3749 11.9999C10.1555 12.1645 9.92177 12.4059 9.75052 12.7645C9.58287 13.1154 9.5 13.5264 9.5 13.9999H11.5ZM11.5749 13.6C11.6241 13.5631 11.7805 13.4999 12 13.4999V11.4999C11.4987 11.4999 10.8743 11.6255 10.3751 11.9998L11.5749 13.6ZM7.5 13.9999V18.9999H9.5V13.9999H7.5ZM8.5 19.9999H10.5V17.9999H8.5V19.9999ZM11.5 18.9999V13.9999H9.5V18.9999H11.5ZM9.5 16.9999H6V18.9999H9.5V16.9999ZM6 20.9999H9.5V18.9999H6V20.9999ZM10.5 19.9999V17.9999H8.5V19.9999H10.5Z" fill="#5CDFE5" mask="url(#path-1-inside-1_6_202)"/>
</svg>
