<svg width="18" height="18" viewBox="0 0 18 18" fill="none" xmlns="http://www.w3.org/2000/svg">
<mask id="path-1-inside-1_6_214" fill="white">
<path d="M10 9C10 8.4477 9.5523 8 9 8C8.4477 8 8 8.4477 8 9H10ZM8 13C8 13.5523 8.4477 14 9 14C9.5523 14 10 13.5523 10 13H8ZM8.6476 5.85496L7.9406 6.56218L7.9468 6.56828L8.6476 5.85496ZM8.6476 5.14758L9.3485 5.86092L9.3546 5.85478L8.6476 5.14758ZM9.3524 5.14758L8.6396 5.84901C8.6436 5.853 8.6475 5.85697 8.6515 5.8609L9.3524 5.14758ZM8 9V13H10V9H8ZM9 16C5.13401 16 2 12.866 2 9H0C0 13.9706 4.02944 18 9 18V16ZM16 9C16 12.866 12.866 16 9 16V18C13.9706 18 18 13.9706 18 9H16ZM9 2C12.866 2 16 5.13401 16 9H18C18 4.02944 13.9706 0 9 0V2ZM9 0C4.02944 0 0 4.02944 0 9H2C2 5.13401 5.13401 2 9 2V0ZM9 5C9.0525 5 9.1193 5.00987 9.1901 5.03901C9.2607 5.06806 9.3136 5.10736 9.3485 5.14165L7.9468 6.56828C8.23 6.8465 8.5982 7 9 7V5ZM9.3546 5.14777C9.3894 5.18252 9.4298 5.23577 9.4598 5.30758C9.4898 5.37964 9.5 5.44784 9.5 5.50127H7.5C7.5 5.90772 7.6573 6.27894 7.9406 6.56218L9.3546 5.14777ZM9.5 5.50127C9.5 5.55212 9.4904 5.62015 9.4598 5.69369C9.429 5.7674 9.3867 5.82333 9.3485 5.86092L7.9468 4.43427C7.6552 4.72072 7.5 5.09639 7.5 5.50127H9.5ZM9.3546 5.85478C9.3205 5.8889 9.2677 5.92918 9.1958 5.95927C9.1236 5.98951 9.0547 6 9 6V4C8.5926 4 8.2225 4.1586 7.9406 4.44039L9.3546 5.85478ZM9 6C8.9477 6 8.879 5.9901 8.8054 5.95927C8.7317 5.92843 8.6764 5.88638 8.6396 5.84901L10.0651 4.44616C9.7802 4.15668 9.406 4 9 4V6ZM8.6515 5.8609C8.6133 5.82331 8.571 5.7674 8.5402 5.69369C8.5096 5.62015 8.5 5.55212 8.5 5.50127H10.5C10.5 5.09639 10.3448 4.72072 10.0532 4.43427L8.6515 5.8609ZM8.5 5.50127C8.5 5.44784 8.5102 5.37964 8.5402 5.30758C8.5702 5.23577 8.6106 5.18252 8.6454 5.14777L10.059 6.56256C10.3423 6.27932 10.5 5.90772 10.5 5.50127H8.5ZM8.6454 5.14777C8.683 5.11022 8.7387 5.06879 8.8111 5.03901C8.8832 5.0093 8.9499 5 9 5V7C9.4003 7 9.7727 6.84841 10.059 6.56256L8.6454 5.14777Z"/>
</mask>
<path d="M10 9C10 8.4477 9.5523 8 9 8C8.4477 8 8 8.4477 8 9H10ZM8 13C8 13.5523 8.4477 14 9 14C9.5523 14 10 13.5523 10 13H8ZM8.6476 5.85496L7.9406 6.56218L7.9468 6.56828L8.6476 5.85496ZM8.6476 5.14758L9.3485 5.86092L9.3546 5.85478L8.6476 5.14758ZM9.3524 5.14758L8.6396 5.84901C8.6436 5.853 8.6475 5.85697 8.6515 5.8609L9.3524 5.14758ZM8 9V13H10V9H8ZM9 16C5.13401 16 2 12.866 2 9H0C0 13.9706 4.02944 18 9 18V16ZM16 9C16 12.866 12.866 16 9 16V18C13.9706 18 18 13.9706 18 9H16ZM9 2C12.866 2 16 5.13401 16 9H18C18 4.02944 13.9706 0 9 0V2ZM9 0C4.02944 0 0 4.02944 0 9H2C2 5.13401 5.13401 2 9 2V0ZM9 5C9.0525 5 9.1193 5.00987 9.1901 5.03901C9.2607 5.06806 9.3136 5.10736 9.3485 5.14165L7.9468 6.56828C8.23 6.8465 8.5982 7 9 7V5ZM9.3546 5.14777C9.3894 5.18252 9.4298 5.23577 9.4598 5.30758C9.4898 5.37964 9.5 5.44784 9.5 5.50127H7.5C7.5 5.90772 7.6573 6.27894 7.9406 6.56218L9.3546 5.14777ZM9.5 5.50127C9.5 5.55212 9.4904 5.62015 9.4598 5.69369C9.429 5.7674 9.3867 5.82333 9.3485 5.86092L7.9468 4.43427C7.6552 4.72072 7.5 5.09639 7.5 5.50127H9.5ZM9.3546 5.85478C9.3205 5.8889 9.2677 5.92918 9.1958 5.95927C9.1236 5.98951 9.0547 6 9 6V4C8.5926 4 8.2225 4.1586 7.9406 4.44039L9.3546 5.85478ZM9 6C8.9477 6 8.879 5.9901 8.8054 5.95927C8.7317 5.92843 8.6764 5.88638 8.6396 5.84901L10.0651 4.44616C9.7802 4.15668 9.406 4 9 4V6ZM8.6515 5.8609C8.6133 5.82331 8.571 5.7674 8.5402 5.69369C8.5096 5.62015 8.5 5.55212 8.5 5.50127H10.5C10.5 5.09639 10.3448 4.72072 10.0532 4.43427L8.6515 5.8609ZM8.5 5.50127C8.5 5.44784 8.5102 5.37964 8.5402 5.30758C8.5702 5.23577 8.6106 5.18252 8.6454 5.14777L10.059 6.56256C10.3423 6.27932 10.5 5.90772 10.5 5.50127H8.5ZM8.6454 5.14777C8.683 5.11022 8.7387 5.06879 8.8111 5.03901C8.8832 5.0093 8.9499 5 9 5V7C9.4003 7 9.7727 6.84841 10.059 6.56256L8.6454 5.14777Z" fill="#5CDFE5"/>
<path d="M10.059 6.56256L9.7053 6.91596L10.4128 6.20926L10.059 6.56256ZM8 9.5H10V8.5H8V9.5ZM10 12.5H8V13.5H10V12.5ZM8.9986 6.20826L9.7052 6.91586L10.4128 6.20926L9.7062 5.50166L8.9986 6.20826ZM2 8.5H0V9.5H2V8.5ZM9.5 18V16H8.5V18H9.5ZM18 8.5H16V9.5H18V8.5ZM8.5 0V2H9.5V0H8.5ZM9.5 7V5H8.5V7H9.5ZM9.5 5.00127H7.5V6.00127H9.5V5.00127ZM9.5 6V4H8.5V6H9.5ZM8.5 6.00127H10.5V5.00127H8.5V6.00127ZM8.2917 5.50117L9.7053 6.91596L10.4127 6.20916L8.9991 4.79437L8.2917 5.50117ZM8.6476 5.85496L9.36094 6.55578L7.94038 5.14796L8.6476 5.85496ZM7.9406 6.56218L7.23355 7.26938L7.23922 7.27496L7.9406 6.56218ZM7.9468 6.56828L7.24542 7.28107L7.24599 7.28163L7.9468 6.56828ZM8.6476 5.14758L9.35481 4.44057L7.9343 5.84844L8.6476 5.14758ZM9.3485 5.86092L8.6352 6.56178L9.33659 7.27561L10.0499 6.57369L9.3485 5.86092ZM9.3546 5.85478L10.064 6.55957L10.7664 5.85257L10.0618 5.14777L9.3546 5.85478ZM9.3524 5.14758L10.0657 5.84845L8.651 4.43481L9.3524 5.14758ZM8.6396 5.84901L7.93818 5.13626L7.2252 5.83791L7.92708 6.55066L8.6396 5.84901ZM8.6515 5.8609L7.95066 6.57422L8.66395 7.27503L9.36479 6.56177L8.6515 5.8609ZM10.059 6.56256L10.7656 7.27022L10.766 7.26974L10.059 6.56256ZM9.1901 5.03901L8.80949 5.96375L8.80958 5.96378L9.1901 5.03901ZM9.3485 5.14165L10.0618 5.8425L10.7627 5.12918L10.0493 4.42834L9.3485 5.14165ZM9.3546 5.14777L10.0612 4.44016L9.35399 3.73396L8.64739 4.44077L9.3546 5.14777ZM9.4598 5.30758L10.383 4.92324L10.3825 4.9221L9.4598 5.30758ZM9.4598 5.69369L10.3825 6.07924L10.3831 6.07786L9.4598 5.69369ZM7.9468 4.43427L8.66012 3.73343L7.95934 3.02017L7.24602 3.72089L7.9468 4.43427ZM9.1958 5.95927L8.80975 5.03679L8.80948 5.0369L9.1958 5.95927ZM7.9406 4.44039L7.23363 3.73315L6.52635 4.44015L7.2334 5.1474L7.9406 4.44039ZM8.8054 5.95927L9.19176 5.03692L9.19142 5.03678L8.8054 5.95927ZM10.0651 4.44616L10.7665 5.15891L11.4793 4.45746L10.7778 3.74471L10.0651 4.44616ZM8.5402 5.69369L7.61694 6.07786L7.61751 6.07924L8.5402 5.69369ZM10.0532 4.43427L10.754 3.72089L10.0407 3.02018L9.33989 3.73342L10.0532 4.43427ZM8.5402 5.30758L7.61748 4.9221L7.61701 4.92324L8.5402 5.30758ZM8.6454 5.14777L9.352 5.85538L9.35204 5.85535L8.6454 5.14777ZM8.8111 5.03901L9.1915 5.96383L9.19209 5.96359L8.8111 5.03901ZM11 9C11 7.89542 10.1046 7 9 7V9H11ZM9 7C7.89542 7 7 7.89542 7 9H9V7ZM7 13C7 14.1046 7.89542 15 9 15V13H7ZM9 15C10.1046 15 11 14.1046 11 13H9V15ZM7.94038 5.14796L7.23338 5.85518L8.64782 7.26918L9.35482 6.56196L7.94038 5.14796ZM7.23922 7.27496L7.24542 7.28107L8.64818 5.85549L8.64198 5.84939L7.23922 7.27496ZM8.66014 7.2691L9.36094 6.55578L7.93426 5.15414L7.23346 5.86746L8.66014 7.2691ZM7.9343 5.84844L8.6352 6.56178L10.0618 5.16006L9.3609 4.44672L7.9343 5.84844ZM10.0579 6.56571L10.064 6.55957L8.64518 5.14999L8.63908 5.15613L10.0579 6.56571ZM10.0618 5.14777L9.35481 4.44057L7.94039 5.85459L8.64739 6.56179L10.0618 5.14777ZM8.651 4.43481L7.9382 5.13624L9.341 6.56178L10.0538 5.86035L8.651 4.43481ZM7.93338 6.557C7.93326 6.55688 7.93338 6.557 7.93405 6.55767C7.93439 6.55802 7.93474 6.55837 7.93528 6.55891C7.93577 6.55941 7.93643 6.56007 7.93713 6.56077C7.93974 6.56339 7.94475 6.56841 7.95066 6.57422L9.35234 5.14758C9.35425 5.14946 9.35531 5.15053 9.35397 5.14919C9.35368 5.1489 9.35335 5.14856 9.35285 5.14807C9.35241 5.14762 9.35177 5.14698 9.35112 5.14632C9.34981 5.14501 9.34794 5.14314 9.34582 5.14102L7.93338 6.557ZM9.36479 6.56177L10.0657 5.84845L8.63911 4.44671L7.93821 5.16003L9.36479 6.56177ZM7 9V13H9V9H7ZM11 13V9H9V13H11ZM9 15C5.68629 15 3 12.3137 3 9H1C1 13.4183 4.58173 17 9 17V15ZM-1 9C-1 14.5229 3.47716 19 9 19V17C4.58172 17 1 13.4183 1 9H-1ZM15 9C15 12.3137 12.3137 15 9 15V17C13.4183 17 17 13.4183 17 9H15ZM9 19C14.5229 19 19 14.5229 19 9H17C17 13.4183 13.4183 17 9 17V19ZM9 3C12.3137 3 15 5.68629 15 9H17C17 4.58173 13.4183 1 9 1V3ZM19 9C19 3.47716 14.5229 -1 9 -1V1C13.4183 1 17 4.58172 17 9H19ZM9 -1C3.47716 -1 -1 3.47716 -1 9H1C1 4.58172 4.58172 1 9 1V-1ZM3 9C3 5.6863 5.6863 3 9 3V1C4.58173 1 1 4.58173 1 9H3ZM9 6C8.9319 6 8.86832 5.98796 8.80949 5.96375L9.57071 4.11427C9.37028 4.03178 9.1731 4 9 4V6ZM8.80958 5.96378C8.75086 5.93962 8.69692 5.90337 8.64765 5.85496L10.0493 4.42834C9.93028 4.31135 9.77054 4.1965 9.57062 4.11424L8.80958 5.96378ZM8.63519 4.4408L7.23349 5.86743L8.66011 7.26913L10.0618 5.8425L8.63519 4.4408ZM7.24599 7.28163C7.71382 7.74123 8.33274 8 9 8V6C8.86366 6 8.74618 5.95177 8.64761 5.85493L7.24599 7.28163ZM8.648 5.85538C8.59883 5.80629 8.56179 5.7522 8.53708 5.69306L10.3825 4.9221C10.2978 4.71934 10.18 4.55875 10.0612 4.44016L8.648 5.85538ZM8.53661 5.69192C8.51225 5.63341 8.5 5.56991 8.5 5.50127H10.5C10.5 5.32577 10.4674 5.12587 10.383 4.92324L8.53661 5.69192ZM6.5 5.50127C6.5 6.17692 6.76549 6.80139 7.23357 7.26936L8.64763 5.855C8.54911 5.75649 8.5 5.63852 8.5 5.50127H6.5ZM8.64781 7.26918L10.0618 5.85477L8.64739 4.44077L7.23339 5.85518L8.64781 7.26918ZM8.5 5.50127C8.5 5.43167 8.51227 5.36784 8.53654 5.30952L10.3831 6.07786C10.4685 5.87246 10.5 5.67257 10.5 5.50127H8.5ZM8.53711 5.30814C8.5618 5.24906 8.59863 5.19585 8.64711 5.14815L10.0499 6.57369C10.1748 6.45081 10.2962 6.28574 10.3825 6.07924L8.53711 5.30814ZM10.0618 5.16008L8.66012 3.73343L7.23348 5.13511L8.63518 6.56176L10.0618 5.16008ZM7.24602 3.72089C6.76113 4.19722 6.5 4.83075 6.5 5.50127H8.5C8.5 5.36203 8.54927 5.24422 8.64758 5.14765L7.24602 3.72089ZM8.64729 5.14788C8.69638 5.09876 8.75053 5.06158 8.80975 5.03679L9.58185 6.88175C9.78487 6.79678 9.94462 6.67904 10.0619 6.56168L8.64729 5.14788ZM8.80948 5.0369C8.86847 5.0122 8.93198 5 9 5V7C9.17741 7 9.37873 6.96682 9.58212 6.88163L8.80948 5.0369ZM9 3C8.32143 3 7.69875 3.2682 7.23363 3.73315L8.64757 5.14763C8.74625 5.049 8.86377 5 9 5V3ZM7.2334 5.1474L8.6474 6.56179L10.0618 5.14777L8.64781 3.73338L7.2334 5.1474ZM9 5C9.06875 5 9.13272 5.01219 9.19176 5.03692L8.41904 6.88162C8.62528 6.96801 8.82665 7 9 7V5ZM9.19142 5.03678C9.25058 5.06154 9.30411 5.09861 9.35212 5.14736L7.92708 6.55066C8.04869 6.67415 8.21282 6.79532 8.41938 6.88176L9.19142 5.03678ZM9.34102 6.56176L10.7665 5.15891L9.36368 3.73341L7.93818 5.13626L9.34102 6.56176ZM10.7778 3.74471C10.3049 3.26419 9.67392 3 9 3V5C9.13808 5 9.25549 5.04917 9.35238 5.14761L10.7778 3.74471ZM9.35289 5.14813C9.40129 5.19574 9.43816 5.24896 9.46289 5.30814L7.61751 6.07924C7.70384 6.28584 7.82531 6.45088 7.95011 6.57367L9.35289 5.14813ZM9.46346 5.30952C9.48773 5.36784 9.5 5.43167 9.5 5.50127H7.5C7.5 5.67257 7.53147 5.87246 7.61694 6.07786L9.46346 5.30952ZM11.5 5.50127C11.5 4.83075 11.2389 4.19722 10.754 3.72089L9.35242 5.14765C9.45073 5.24422 9.5 5.36203 9.5 5.50127H11.5ZM9.33989 3.73342L7.93819 5.16005L9.36481 6.56175L10.7665 5.13512L9.33989 3.73342ZM9.5 5.50127C9.5 5.56991 9.48775 5.63341 9.46339 5.69192L7.61701 4.92324C7.53265 5.12587 7.5 5.32577 7.5 5.50127H9.5ZM9.46292 5.69306C9.43821 5.7522 9.40117 5.80629 9.352 5.85538L7.9388 4.44016C7.82003 4.55875 7.70219 4.71934 7.61749 4.9221L9.46292 5.69306ZM10.766 7.26974C11.2338 6.80206 11.5 6.17733 11.5 5.50127H9.5C9.5 5.63811 9.45079 5.75658 9.35197 5.85538L10.766 7.26974ZM9.35204 5.85535C9.30471 5.90261 9.25166 5.93909 9.1915 5.96383L8.4307 4.11419C8.22574 4.19849 8.06129 4.31783 7.93876 4.44019L9.35204 5.85535ZM9.19209 5.96359C9.13273 5.98805 9.06862 6 9 6V4C8.83118 4 8.63367 4.03055 8.43011 4.11443L9.19209 5.96359ZM9 8C9.66247 8 10.2898 7.74522 10.7656 7.27022L9.35245 5.8549C9.2556 5.9516 9.13813 6 9 6V8Z" fill="#5CDFE5" mask="url(#path-1-inside-1_6_214)"/>
</svg>
