<svg width="14" height="24" viewBox="0 0 14 24" fill="none" xmlns="http://www.w3.org/2000/svg">
<g id="Left" clip-path="url(#clip0_10_616)">
<g id="Page-1">
<g id="Asset-1">
<g id="Layer_77">
<path id="Rectangle-path" d="M10.6372 0.572162L0.572164 10.6372C-0.190744 11.4001 -0.190745 12.637 0.572164 13.3999L0.600074 13.4278C1.36298 14.1907 2.5999 14.1907 3.36281 13.4278L13.4278 3.36281C14.1907 2.5999 14.1907 1.36298 13.4278 0.600071L13.3999 0.572161C12.637 -0.190747 11.4001 -0.190747 10.6372 0.572162Z" fill="#5CDFE5"/>
<path id="Rectangle-path_2" d="M0.600074 10.5722L0.572164 10.6001C-0.190744 11.363 -0.190745 12.5999 0.572164 13.3628L10.6372 23.4278C11.4001 24.1907 12.637 24.1907 13.3999 23.4278L13.4278 23.3999C14.1907 22.637 14.1907 21.4001 13.4278 20.6372L3.36281 10.5722C2.5999 9.80926 1.36298 9.80926 0.600074 10.5722Z" fill="#5CDFE5"/>
</g>
</g>
</g>
</g>
<defs>
<clipPath id="clip0_10_616">
<rect width="14" height="24" fill="white"/>
</clipPath>
</defs>
</svg>
