<svg width="20" height="20" viewBox="0 0 20 20" fill="none" xmlns="http://www.w3.org/2000/svg">
<g id="Notes">
<path id="Vector" d="M18.3634 1.63724C17.5827 0.856553 16.2193 0.855174 15.4372 1.63724L13.9745 3.1L13.9676 3.1069H3.78963C2.26825 3.1069 1.03101 4.34414 1.03101 5.86552V16.2103C1.03101 17.7317 2.26825 18.969 3.78963 18.969H14.1345C15.6558 18.969 16.8931 17.7317 16.8931 16.2103V6.03242L16.9 6.02552L18.3627 4.56276C18.7531 4.17242 18.9689 3.65242 18.9689 3.1C18.9689 2.5469 18.7531 2.0269 18.3634 1.63724ZM10.7076 10.2676L9.48825 10.5117L9.73239 9.29242L14.9489 4.07586L15.9241 5.05104L10.7076 10.2676ZM3.78963 4.48621H12.5882L9.82963 7.24483H2.41032V5.86552C2.41032 5.10483 3.02963 4.48621 3.78963 4.48621ZM14.1345 17.5897H3.78963C3.02894 17.5897 2.41032 16.971 2.41032 16.2103V8.62414H8.4917C8.45894 8.68448 8.43524 8.74931 8.42135 8.81655L7.93376 11.2545C7.91197 11.3657 7.91786 11.4805 7.9509 11.5889C7.98395 11.6973 8.04314 11.7959 8.12326 11.876C8.20339 11.9561 8.30198 12.0153 8.41037 12.0484C8.51875 12.0814 8.6336 12.0873 8.7448 12.0655L11.1827 11.5779C11.3161 11.5509 11.4386 11.4855 11.5351 11.3897L14.3014 8.62345H15.5138V16.2097C15.5134 16.5754 15.368 16.9261 15.1094 17.1848C14.8508 17.4435 14.5002 17.5891 14.1345 17.5897ZM17.3876 3.58759L16.9 4.07517L15.9248 3.1L16.4124 2.61242C16.5438 2.48697 16.7185 2.41703 16.9001 2.41716C17.0818 2.41729 17.2564 2.48747 17.3876 2.61311C17.4517 2.67699 17.5026 2.75292 17.5374 2.83654C17.5721 2.92015 17.59 3.0098 17.59 3.10035C17.59 3.19089 17.5721 3.28054 17.5374 3.36416C17.5026 3.44777 17.4517 3.5237 17.3876 3.58759Z" fill="#424343"/>
</g>
</svg>
