<svg width="30" height="30" viewBox="0 0 30 30" fill="none" xmlns="http://www.w3.org/2000/svg">
<path id="path7" d="M15 0C11.0231 0.00452816 7.21046 1.58633 4.3984 4.39839C1.58633 7.21045 0.00452817 11.0231 0 15C0 19.0077 1.56116 22.7737 4.39478 25.6052C5.78392 27.0028 7.43657 28.1109 9.257 28.8653C11.0774 29.6197 13.0295 30.0053 15 29.9999C18.9769 29.9954 22.7895 28.4136 25.6016 25.6016C28.4137 22.7895 29.9955 18.9768 30 15C29.9955 11.0231 28.4137 7.21045 25.6016 4.39839C22.7895 1.58633 18.9769 0.00452816 15 0ZM15 2.13858C18.4098 2.14254 21.6789 3.49885 24.09 5.90997C26.5011 8.32109 27.8575 11.5901 27.8614 15C27.8585 18.2338 26.6314 21.3466 24.4269 23.7125C22.9716 21.9897 21.0766 20.6935 18.9435 19.9615C19.6841 19.3609 20.2814 18.6028 20.6921 17.7423C21.1027 16.8818 21.3163 15.9406 21.3174 14.9871C21.3148 14.144 21.146 13.3097 20.8205 12.5319C20.495 11.7541 20.0192 11.0482 19.4205 10.4546C18.8217 9.86103 18.1117 9.3914 17.3311 9.07265C16.5506 8.7539 15.7148 8.59229 14.8717 8.59708C14.0289 8.5996 13.1949 8.7683 12.4174 9.09354C11.6399 9.41877 10.9342 9.89415 10.3407 10.4925C9.74714 11.0908 9.27742 11.8003 8.95842 12.5803C8.63942 13.3604 8.47739 14.1957 8.48161 15.0385C8.48161 17.0252 9.41403 18.781 10.8426 19.9529C8.75288 20.6651 6.88902 21.918 5.44055 23.5842C3.31059 21.233 2.13332 18.1725 2.13858 15C2.14254 11.5901 3.49885 8.32109 5.90998 5.90997C8.32111 3.49885 11.5902 2.14254 15 2.13858ZM14.9252 10.7357C17.2712 10.7357 19.1766 12.6433 19.1766 15.0385C19.1739 16.1401 18.7436 17.1977 17.9765 17.9884C17.2094 18.7791 16.1652 19.2411 15.0642 19.2771C15.0021 19.2771 14.9423 19.2643 14.8802 19.2643C14.8268 19.2643 14.7754 19.275 14.722 19.2771C13.6157 19.2338 12.5697 18.762 11.805 17.9614C11.0403 17.1608 10.617 16.0942 10.6245 14.9871C10.6245 12.6433 12.5299 10.7357 14.9252 10.7357ZM14.7198 21.4114C14.7712 21.4136 14.8225 21.4285 14.8738 21.4285H14.9252C14.9722 21.4285 15.0107 21.4136 15.0577 21.4114C16.5497 21.4375 18.0183 21.7858 19.3631 22.4325C20.7078 23.0792 21.8968 24.009 22.8486 25.1582C20.6071 26.9094 17.8445 27.8609 15 27.8614C12.0911 27.8673 9.26751 26.8788 6.99743 25.0598C7.95168 23.9381 9.13394 23.0326 10.4655 22.4035C11.7971 21.7744 13.2474 21.4362 14.7198 21.4114Z" fill="#5CDFE5"/>
</svg>
