<svg width="28" height="28" viewBox="0 0 28 28" fill="none" xmlns="http://www.w3.org/2000/svg">
<g id="Voice">
<path id="Vector" d="M12.0689 7.24139C11.9409 7.24139 11.8181 7.29226 11.7276 7.38279C11.637 7.47333 11.5862 7.59612 11.5862 7.72415V20.2759C11.5862 20.4039 11.637 20.5267 11.7276 20.6172C11.8181 20.7078 11.9409 20.7586 12.0689 20.7586C12.197 20.7586 12.3198 20.7078 12.4103 20.6172C12.5008 20.5267 12.5517 20.4039 12.5517 20.2759V7.72415C12.5517 7.59612 12.5008 7.47333 12.4103 7.38279C12.3198 7.29226 12.197 7.24139 12.0689 7.24139Z" fill="#5CDFE5"/>
<path id="Vector_2" d="M8.20688 9.17242C8.07884 9.17242 7.95605 9.22329 7.86552 9.31382C7.77498 9.40436 7.72412 9.52715 7.72412 9.65518V18.3448C7.72412 18.4729 7.77498 18.5957 7.86552 18.6862C7.95605 18.7767 8.07884 18.8276 8.20688 18.8276C8.33492 18.8276 8.45771 18.7767 8.54824 18.6862C8.63878 18.5957 8.68964 18.4729 8.68964 18.3448V9.65518C8.68964 9.52715 8.63878 9.40436 8.54824 9.31382C8.45771 9.22329 8.33492 9.17242 8.20688 9.17242Z" fill="#5CDFE5"/>
<path id="Vector_3" d="M4.34482 11.5862C4.21678 11.5862 4.09399 11.6371 4.00346 11.7276C3.91292 11.8181 3.86206 11.9409 3.86206 12.069V15.931C3.86206 16.0591 3.91292 16.1819 4.00346 16.2724C4.09399 16.3629 4.21678 16.4138 4.34482 16.4138C4.47285 16.4138 4.59565 16.3629 4.68618 16.2724C4.77672 16.1819 4.82758 16.0591 4.82758 15.931V12.069C4.82758 11.9409 4.77672 11.8181 4.68618 11.7276C4.59565 11.6371 4.47285 11.5862 4.34482 11.5862Z" fill="#5CDFE5"/>
<path id="Vector_4" d="M2.41379 12.5517C2.28575 12.5517 2.16296 12.6026 2.07243 12.6931C1.98189 12.7837 1.93103 12.9065 1.93103 13.0345V14.9655C1.93103 15.0936 1.98189 15.2163 2.07243 15.3069C2.16296 15.3974 2.28575 15.4483 2.41379 15.4483C2.54182 15.4483 2.66462 15.3974 2.75515 15.3069C2.84569 15.2163 2.89655 15.0936 2.89655 14.9655V13.0345C2.89655 12.9065 2.84569 12.7837 2.75515 12.6931C2.66462 12.6026 2.54182 12.5517 2.41379 12.5517Z" fill="#5CDFE5"/>
<path id="Vector_5" d="M15.931 11.1035C15.803 11.1035 15.6802 11.1543 15.5896 11.2449C15.4991 11.3354 15.4482 11.4582 15.4482 11.5862V16.4138C15.4482 16.5418 15.4991 16.6646 15.5896 16.7552C15.6802 16.8457 15.803 16.8966 15.931 16.8966C16.059 16.8966 16.1818 16.8457 16.2724 16.7552C16.3629 16.6646 16.4138 16.5418 16.4138 16.4138V11.5862C16.4138 11.4582 16.3629 11.3354 16.2724 11.2449C16.1818 11.1543 16.059 11.1035 15.931 11.1035Z" fill="#5CDFE5"/>
<path id="Vector_6" d="M14 9.65518C13.8719 9.65518 13.7491 9.70604 13.6586 9.79658C13.5681 9.88711 13.5172 10.0099 13.5172 10.1379V17.8621C13.5172 17.9901 13.5681 18.1129 13.6586 18.2034C13.7491 18.294 13.8719 18.3448 14 18.3448C14.128 18.3448 14.2508 18.294 14.3413 18.2034C14.4319 18.1129 14.4827 17.9901 14.4827 17.8621V10.1379C14.4827 10.0099 14.4319 9.88711 14.3413 9.79658C14.2508 9.70604 14.128 9.65518 14 9.65518Z" fill="#5CDFE5"/>
<path id="Vector_7" d="M10.1379 5.79309C10.0099 5.79309 9.88708 5.84395 9.79655 5.93449C9.70601 6.02502 9.65515 6.14781 9.65515 6.27585V21.7241C9.65515 21.8522 9.70601 21.975 9.79655 22.0655C9.88708 22.156 10.0099 22.2069 10.1379 22.2069C10.2659 22.2069 10.3887 22.156 10.4793 22.0655C10.5698 21.975 10.6207 21.8522 10.6207 21.7241V6.27585C10.6207 6.14781 10.5698 6.02502 10.4793 5.93449C10.3887 5.84395 10.2659 5.79309 10.1379 5.79309Z" fill="#5CDFE5"/>
<path id="Vector_8" d="M6.27585 11.1035C6.14781 11.1035 6.02502 11.1543 5.93449 11.2449C5.84395 11.3354 5.79309 11.4582 5.79309 11.5862V16.4138C5.79309 16.5418 5.84395 16.6646 5.93449 16.7552C6.02502 16.8457 6.14781 16.8966 6.27585 16.8966C6.40388 16.8966 6.52668 16.8457 6.61721 16.7552C6.70775 16.6646 6.75861 16.5418 6.75861 16.4138V11.5862C6.75861 11.4582 6.70775 11.3354 6.61721 11.2449C6.52668 11.1543 6.40388 11.1035 6.27585 11.1035Z" fill="#5CDFE5"/>
<path id="Vector_9" d="M17.862 9.65518C17.734 9.65518 17.6112 9.70604 17.5207 9.79658C17.4301 9.88711 17.3793 10.0099 17.3793 10.1379V17.8621C17.3793 17.9901 17.4301 18.1129 17.5207 18.2034C17.6112 18.294 17.734 18.3448 17.862 18.3448C17.9901 18.3448 18.1129 18.294 18.2034 18.2034C18.2939 18.1129 18.3448 17.9901 18.3448 17.8621V10.1379C18.3448 10.0099 18.2939 9.88711 18.2034 9.79658C18.1129 9.70604 17.9901 9.65518 17.862 9.65518Z" fill="#5CDFE5"/>
<path id="Vector_10" d="M19.7931 8.68967C19.665 8.68967 19.5422 8.74053 19.4517 8.83106C19.3612 8.9216 19.3103 9.04439 19.3103 9.17243V18.8276C19.3103 18.9556 19.3612 19.0784 19.4517 19.169C19.5422 19.2595 19.665 19.3104 19.7931 19.3104C19.9211 19.3104 20.0439 19.2595 20.1344 19.169C20.225 19.0784 20.2758 18.9556 20.2758 18.8276V9.17243C20.2758 9.04439 20.225 8.9216 20.1344 8.83106C20.0439 8.74053 19.9211 8.68967 19.7931 8.68967Z" fill="#5CDFE5"/>
<path id="Vector_11" d="M23.6551 11.5862C23.5271 11.5862 23.4043 11.6371 23.3138 11.7276C23.2232 11.8181 23.1724 11.9409 23.1724 12.069V15.931C23.1724 16.0591 23.2232 16.1819 23.3138 16.2724C23.4043 16.3629 23.5271 16.4138 23.6551 16.4138C23.7832 16.4138 23.9059 16.3629 23.9965 16.2724C24.087 16.1819 24.1379 16.0591 24.1379 15.931V12.069C24.1379 11.9409 24.087 11.8181 23.9965 11.7276C23.9059 11.6371 23.7832 11.5862 23.6551 11.5862Z" fill="#5CDFE5"/>
<path id="Vector_12" d="M21.7241 10.1379C21.5961 10.1379 21.4733 10.1888 21.3827 10.2793C21.2922 10.3699 21.2413 10.4927 21.2413 10.6207V17.3793C21.2413 17.5074 21.2922 17.6301 21.3827 17.7207C21.4733 17.8112 21.5961 17.8621 21.7241 17.8621C21.8521 17.8621 21.9749 17.8112 22.0655 17.7207C22.156 17.6301 22.2069 17.5074 22.2069 17.3793V10.6207C22.2069 10.4927 22.156 10.3699 22.0655 10.2793C21.9749 10.1888 21.8521 10.1379 21.7241 10.1379Z" fill="#5CDFE5"/>
<path id="Vector_13" d="M25.5862 12.5517C25.4581 12.5517 25.3353 12.6026 25.2448 12.6931C25.1543 12.7837 25.1034 12.9065 25.1034 13.0345V14.9655C25.1034 15.0936 25.1543 15.2163 25.2448 15.3069C25.3353 15.3974 25.4581 15.4483 25.5862 15.4483C25.7142 15.4483 25.837 15.3974 25.9275 15.3069C26.018 15.2163 26.0689 15.0936 26.0689 14.9655V13.0345C26.0689 12.9065 26.018 12.7837 25.9275 12.6931C25.837 12.6026 25.7142 12.5517 25.5862 12.5517Z" fill="#5CDFE5"/>
</g>
</svg>
