<svg width="20" height="20" viewBox="0 0 20 20" fill="none" xmlns="http://www.w3.org/2000/svg">
<g id="volume">
<g id="Layer 2">
<g id="volume-up">
<path id="Vector" d="M15.2334 6.975C15.0941 6.80261 14.8921 6.69259 14.6718 6.66915C14.4514 6.64571 14.2308 6.71076 14.0584 6.85C13.886 6.98924 13.776 7.19126 13.7525 7.41161C13.7291 7.63197 13.7941 7.85261 13.9334 8.025C14.3544 8.59743 14.5815 9.28942 14.5815 10C14.5815 10.7106 14.3544 11.4026 13.9334 11.975C13.834 12.0975 13.7715 12.2456 13.753 12.4022C13.7344 12.5588 13.7608 12.7175 13.8288 12.8597C13.8969 13.002 14.0039 13.122 14.1375 13.2058C14.2711 13.2897 14.4257 13.3339 14.5834 13.3333C14.7079 13.3338 14.8309 13.3063 14.9434 13.2529C15.0558 13.1996 15.1549 13.1217 15.2334 13.025C15.8944 12.1551 16.2522 11.0926 16.2522 10C16.2522 8.90743 15.8944 7.84493 15.2334 6.975Z" fill="#424343"/>
<path id="Vector_2" d="M16.3667 4.35834C16.2825 4.2883 16.1852 4.23554 16.0806 4.20308C15.9759 4.17062 15.8659 4.15909 15.7568 4.16915C15.6477 4.17921 15.5416 4.21066 15.4447 4.26171C15.3477 4.31276 15.2618 4.3824 15.1917 4.46667C15.1217 4.55093 15.0689 4.64817 15.0365 4.75282C15.004 4.85748 14.9925 4.9675 15.0025 5.07661C15.0126 5.18571 15.0441 5.29177 15.0951 5.38873C15.1461 5.48568 15.2158 5.57163 15.3001 5.64167C15.9684 6.15823 16.5128 6.81768 16.8935 7.57176C17.2741 8.32585 17.4814 9.1555 17.5001 10C17.4814 10.8445 17.2741 11.6742 16.8935 12.4282C16.5128 13.1823 15.9684 13.8418 15.3001 14.3583C15.2157 14.4283 15.1459 14.5142 15.0948 14.6112C15.0437 14.7081 15.0122 14.8142 15.0021 14.9234C14.992 15.0325 15.0036 15.1426 15.0362 15.2472C15.0687 15.3519 15.1216 15.4491 15.1917 15.5333C15.2701 15.6274 15.3682 15.7031 15.4791 15.7549C15.59 15.8068 15.711 15.8335 15.8334 15.8333C16.0281 15.8337 16.2168 15.7659 16.3667 15.6417C17.2254 14.9704 17.9227 14.1151 18.4073 13.1387C18.8918 12.1624 19.1513 11.0899 19.1667 10C19.1513 8.91014 18.8918 7.8376 18.4073 6.86126C17.9227 5.88493 17.2254 5.02965 16.3667 4.35834ZM12.5001 2.6C12.3734 2.52686 12.2297 2.48836 12.0834 2.48836C11.9371 2.48836 11.7934 2.52686 11.6667 2.6L6.26672 6.30834H2.10006C1.87904 6.30834 1.66708 6.39613 1.5108 6.55241C1.35452 6.70869 1.26672 6.92066 1.26672 7.14167V12.8583C1.26672 13.0794 1.35452 13.2913 1.5108 13.4476C1.66708 13.6039 1.87904 13.6917 2.10006 13.6917H6.26672L11.6084 17.3583C11.75 17.4499 11.9148 17.4991 12.0834 17.5C12.3044 17.5 12.5164 17.4122 12.6726 17.2559C12.8289 17.0996 12.9167 16.8877 12.9167 16.6667V3.33334C12.9188 3.18509 12.8813 3.03897 12.808 2.91006C12.7348 2.78115 12.6285 2.67412 12.5001 2.6ZM11.2751 15.1L7.00006 12.1667C6.85976 12.0724 6.69409 12.023 6.52506 12.025H2.91672V7.975H6.52506C6.69409 7.97705 6.85976 7.92764 7.00006 7.83334L11.2501 4.91667L11.2751 15.1Z" fill="#424343"/>
</g>
</g>
</g>
</svg>
